<svg width="103" height="146" viewBox="0 0 103 146" fill="none" xmlns="http://www.w3.org/2000/svg">
<path d="M24 91C24 88.2386 26.2386 86 29 86H84C86.7614 86 89 88.2386 89 91V106C89 108.761 86.7614 111 84 111H29C26.2386 111 24 108.761 24 106V91Z" fill="#4D4C4C"/>
<path d="M59 88C36.9086 88 19 105.909 19 128V131.954C19 136.873 19.8881 141.585 21.5127 145.938H96.4873C98.1119 141.585 99 136.873 99 131.954V128C99 105.909 81.0914 88 59 88Z" fill="#4D4C4C"/>
<ellipse cx="54.5" cy="63.5" rx="39.5" ry="38.5" fill="white"/>
<path d="M9 80C9 67.8497 18.8497 58 31 58H44C56.1503 58 66 67.8497 66 80V80C66 92.1503 56.1503 102 44 102H37.5H31C18.8497 102 9 92.1503 9 80V80Z" fill="white"/>
<rect x="20" y="66" width="20" height="13" rx="6.5" fill="#1E1E1E"/>
<path d="M74.4839 14.4088C77.0851 10.8639 82.666 12.1609 83.4374 16.4896L88.5797 45.3438C89.2094 48.8773 86.0215 51.9038 82.5254 51.0913L60.0437 45.8666C56.5476 45.0541 55.021 40.932 57.1444 38.0383L74.4839 14.4088Z" fill="url(#paint0_linear_1118_729)"/>
<path d="M36.9577 15.3422C38.3182 11.1698 44.0099 10.6492 46.1049 14.5055L53.9145 28.8814C55.6296 32.0385 53.5544 35.9201 49.9764 36.2474L37.0949 37.4257C33.517 37.7529 30.772 34.3122 31.8858 30.8964L36.9577 15.3422Z" fill="white"/>
<ellipse cx="56.5" cy="124" rx="14.5" ry="13" fill="white"/>
<ellipse cx="14" cy="123.5" rx="14" ry="12.5" fill="white"/>
<circle cx="49.5" cy="54.5" r="3.5" fill="#1E1E1E"/>
<circle cx="34.5" cy="54.5" r="3.5" fill="#1E1E1E"/>
<defs>
<linearGradient id="paint0_linear_1118_729" x1="81.3894" y1="4.99812" x2="82.9745" y2="-5.38849" gradientUnits="userSpaceOnUse">
<stop stop-color="white"/>
<stop offset="1" stop-color="#FFCBCB"/>
</linearGradient>
</defs>
</svg>
