<svg width="103" height="172" viewBox="0 0 103 172" fill="none" xmlns="http://www.w3.org/2000/svg">
<path fill-rule="evenodd" clip-rule="evenodd" d="M29 86C26.2386 86 24 88.2386 24 91V106C24 106.686 24.1383 107.34 24.3885 107.936C20.9621 113.834 19 120.688 19 128V131.954C19 136.873 19.8881 141.585 21.5127 145.938H96.4873C98.1119 141.585 99 136.873 99 131.954V128C99 117.856 95.2236 108.593 89 101.542V91C89 88.2386 86.7614 86 84 86H29ZM59 171.954L58.9066 171.954H59.0934L59 171.954Z" fill="#4D4C4C"/>
<ellipse cx="54.5" cy="63.5" rx="39.5" ry="38.5" fill="white"/>
<path d="M9 80C9 67.8497 18.8497 58 31 58H44C56.1503 58 66 67.8497 66 80V80C66 92.1503 56.1503 102 44 102H37.5H31C18.8497 102 9 92.1503 9 80V80Z" fill="white"/>
<rect x="20" y="66" width="20" height="13" rx="6.5" fill="#1E1E1E"/>
<path d="M74.4841 14.4088C77.0853 10.8639 82.6662 12.1609 83.4377 16.4896L88.58 45.3438C89.2097 48.8773 86.0217 51.9038 82.5257 51.0913L60.0439 45.8666C56.5479 45.0541 55.0212 40.932 57.1446 38.0383L74.4841 14.4088Z" fill="url(#paint0_linear_1028_52)"/>
<path d="M36.9577 15.3425C38.3182 11.17 44.0099 10.6494 46.1049 14.5057L53.9145 28.8816C55.6296 32.0387 53.5544 35.9203 49.9764 36.2476L37.0949 37.4259C33.517 37.7532 30.772 34.3125 31.8858 30.8966L36.9577 15.3425Z" fill="white"/>
<ellipse cx="56.5" cy="124" rx="14.5" ry="13" fill="white"/>
<ellipse cx="14" cy="123.5" rx="14" ry="12.5" fill="white"/>
<circle cx="49.5" cy="54.5" r="3.5" fill="#1E1E1E"/>
<circle cx="34.5" cy="54.5" r="3.5" fill="#1E1E1E"/>
<defs>
<linearGradient id="paint0_linear_1028_52" x1="81.3897" y1="4.99812" x2="82.9747" y2="-5.38849" gradientUnits="userSpaceOnUse">
<stop stop-color="white"/>
<stop offset="1" stop-color="#FFCBCB"/>
</linearGradient>
</defs>
</svg>
