<svg width="40" height="36" viewBox="0 0 40 36" fill="none" xmlns="http://www.w3.org/2000/svg">
<path fill-rule="evenodd" clip-rule="evenodd" d="M19.8875 0L39.775 16.5H34.6081V36H28H24.7306H15.3094H11H5.16692V16.5H0L19.8875 0ZM27.411 22.5086C27.411 23.4259 27.8642 24.2976 28.6352 24.802H28.6371C28.8646 24.939 29 25.215 29 25.4434C29 25.5366 29 25.628 28.9549 25.7193C28.5468 26.8194 27.9582 27.8281 27.2323 28.6998C27.0048 28.9739 26.6437 29.0195 26.3259 28.8825C25.5097 28.4238 24.5582 28.4695 23.742 28.9282C22.9259 29.3869 22.4276 30.2585 22.3824 31.1759C22.3373 31.4956 22.1116 31.8173 21.7487 31.863C21.1582 31.9543 20.5696 32 20.0261 32C19.4356 32 18.8922 31.9543 18.3036 31.863C17.9425 31.8173 17.6698 31.5432 17.6698 31.1759C17.6247 30.2129 17.1264 29.3869 16.3102 28.9282C15.5392 28.4695 14.5425 28.4695 13.6812 28.8825C13.3634 29.0671 13.0005 28.9758 12.7748 28.6998C12.0038 27.8281 11.4152 26.8194 11.0522 25.7193C10.962 25.352 11.0974 24.9847 11.3701 24.802C12.1411 24.2976 12.5943 23.4259 12.5943 22.5086C12.5943 21.5912 12.1411 20.7195 11.3701 20.2152C11.0522 19.9849 10.9168 19.6195 11.0522 19.2978C11.4603 18.1977 12.0489 17.189 12.7729 16.3173C13.0005 16.0433 13.3615 15.9976 13.6793 16.1346C14.4955 16.5933 15.447 16.5476 16.2632 16.089C17.0793 15.6303 17.5777 14.7586 17.6228 13.8412C17.6679 13.5215 17.8936 13.1998 18.2565 13.1542C18.847 13.0171 19.4356 12.9715 19.934 13.0171C20.5245 13.0171 21.0679 13.0628 21.6565 13.1542C22.0176 13.1998 22.2903 13.4739 22.2903 13.8412C22.3354 14.8043 22.8337 15.6303 23.6499 16.089C24.4209 16.5476 25.4176 16.5476 26.324 16.1346C26.6418 15.95 27.0048 16.0414 27.2304 16.3173C28.0014 17.189 28.59 18.1977 28.953 19.2978C29.0433 19.6651 28.9079 20.0325 28.6352 20.2152C27.8642 20.7195 27.411 21.5912 27.411 22.5086ZM16.2387 22.501C16.2387 24.604 17.9218 26.3074 19.9998 26.3074C22.0778 26.3074 23.7609 24.604 23.7609 22.501C23.7609 20.3979 22.0778 18.6945 19.9998 18.6945C17.9218 18.6945 16.2387 20.3979 16.2387 22.501Z" fill="white"/>
</svg>
