<svg width="18" height="19" viewBox="0 0 18 19" fill="none" xmlns="http://www.w3.org/2000/svg">
<path d="M16.8125 3.875H1" stroke="#666666" stroke-width="1.5" stroke-linecap="round" stroke-linejoin="round"/>
<path d="M6.74997 8.1875V13.9375" stroke="#666666" stroke-width="1.5" stroke-linecap="round" stroke-linejoin="round"/>
<path d="M11.0625 8.1875V13.9375" stroke="#666666" stroke-width="1.5" stroke-linecap="round" stroke-linejoin="round"/>
<path d="M15.375 3.875V17.5313C15.375 17.7219 15.2993 17.9047 15.1645 18.0395C15.0297 18.1743 14.8469 18.25 14.6563 18.25H3.15625C2.96563 18.25 2.78281 18.1743 2.64802 18.0395C2.51323 17.9047 2.4375 17.7219 2.4375 17.5313V3.875" stroke="#666666" stroke-width="1.5" stroke-linecap="round" stroke-linejoin="round"/>
<path d="M12.5 3.875V2.4375C12.5 2.05625 12.3486 1.69062 12.079 1.42104C11.8094 1.15145 11.4438 1 11.0625 1H6.74997C6.36875 1 6.00312 1.15145 5.73354 1.42104C5.46395 1.69062 5.3125 2.05625 5.3125 2.4375V3.875" stroke="#666666" stroke-width="1.5" stroke-linecap="round" stroke-linejoin="round"/>
</svg>
