<svg width="111" height="128" viewBox="0 0 111 128" fill="none" xmlns="http://www.w3.org/2000/svg">
<path fill-rule="evenodd" clip-rule="evenodd" d="M31.6047 65.2397H78.9018V75.5024C84.9893 79.2776 97.5513 90.8629 97.9874 107.896C98.4417 113.559 97.5456 119.47 91.44 127.261H78.9017L31.6047 127.261V125.086L16.8801 103.613C16.8801 98.9521 22.5285 91.2098 24.7846 88.1173C25.0139 87.803 25.2082 87.5367 25.3579 87.3266L31.6047 79.2424V65.2397Z" fill="#FFD66C"/>
<mask id="mask0_1116_719" style="mask-type:alpha" maskUnits="userSpaceOnUse" x="16" y="65" width="83" height="63">
<path fill-rule="evenodd" clip-rule="evenodd" d="M31.6047 65.2397H78.9018V75.5024C84.9893 79.2776 97.5513 90.8629 97.9874 107.896C98.4417 113.559 97.5456 119.47 91.44 127.261H78.9017L31.6047 127.261V125.086L16.8801 103.613C16.8801 98.9521 22.5285 91.2098 24.7846 88.1173C25.0139 87.803 25.2082 87.5367 25.3579 87.3266L31.6047 79.2424V65.2397Z" fill="#FFD66C"/>
</mask>
<g mask="url(#mask0_1116_719)">
<rect x="31.8276" y="72.8252" width="51.7591" height="1.3386" fill="#D9D9D9"/>
<rect x="23.7961" y="79.0718" width="65.5912" height="1.3386" fill="#D9D9D9"/>
<rect x="12.6411" y="85.3188" width="88.3474" height="1.3386" fill="#D9D9D9"/>
<rect x="12.6411" y="91.5654" width="88.3474" height="1.3386" fill="#D9D9D9"/>
<rect x="12.6411" y="97.812" width="88.3474" height="1.3386" fill="#D9D9D9"/>
<rect x="12.6411" y="104.059" width="88.3474" height="1.3386" fill="#D9D9D9"/>
<rect x="12.6411" y="110.306" width="88.3474" height="1.3386" fill="#D9D9D9"/>
<rect x="12.6411" y="116.553" width="88.3474" height="1.3386" fill="#D9D9D9"/>
<rect x="12.6411" y="122.799" width="88.3474" height="1.3386" fill="#D9D9D9"/>
</g>
<rect x="41.6443" y="106.736" width="25.8795" height="14.7246" rx="7.36228" fill="#8D6250"/>
<rect x="6.84058" y="106.736" width="25.8795" height="14.7246" rx="7.36228" fill="#8D6250"/>
<circle cx="65.5158" cy="94.6892" r="6.24678" fill="#74B7FF"/>
<path fill-rule="evenodd" clip-rule="evenodd" d="M65.2416 97.4762C64.6393 98.068 63.8718 98.2909 63.3037 97.9704C62.5526 97.5465 62.4345 96.333 63.04 95.2599C63.3914 94.6371 63.9093 94.1985 64.4289 94.0229C65.1057 93.7645 66.1154 93.973 66.9987 94.6193C68.1684 95.475 68.6736 96.7743 68.1271 97.5213C67.6148 98.2216 66.3602 98.188 65.2416 97.4762Z" fill="#1E1E1F"/>
<circle cx="63.4451" cy="92.315" r="1.23151" fill="#1E1E1F"/>
<circle cx="66.7293" cy="91.9044" r="1.23151" fill="#1E1E1F"/>
<circle cx="69.1925" cy="93.9571" r="1.23151" fill="#1E1E1F"/>
<circle cx="61.3926" cy="94.7779" r="1.23151" fill="#1E1E1F"/>
<path d="M16.1675 14.0288C20.8294 8.4072 28.8354 6.94034 35.149 10.5511V10.5511C41.2789 14.0568 44.1165 21.3865 41.9584 28.1404L38.8296 37.9323C35.6973 47.735 24.3539 52.1807 15.4568 47.0924L13.9787 46.2471C5.29538 41.2811 3.21435 29.6485 9.62609 21.9169L16.1675 14.0288Z" fill="#7C503E"/>
<ellipse cx="53.9901" cy="34.134" rx="30.7877" ry="30.1184" fill="#8D6250"/>
<ellipse cx="35.4728" cy="14.7247" rx="10.2626" ry="9.37018" fill="#8D6250"/>
<ellipse cx="30.5646" cy="25.879" rx="10.2626" ry="9.37018" fill="#8D6250"/>
<ellipse cx="28.3336" cy="38.3731" rx="10.2626" ry="9.37018" fill="#8D6250"/>
<ellipse cx="28.1105" cy="49.0816" rx="10.2626" ry="9.37018" fill="#8D6250"/>
<ellipse cx="49.3051" cy="9.37018" rx="10.2626" ry="9.37018" fill="#8D6250"/>
<ellipse cx="62.0216" cy="9.37018" rx="10.2626" ry="9.37018" fill="#8D6250"/>
<ellipse cx="73.6227" cy="16.5093" rx="10.2626" ry="9.37018" fill="#8D6250"/>
<ellipse cx="56.6672" cy="60.683" rx="25.6564" ry="12.4936" fill="#8D6250"/>
<ellipse cx="59.7905" cy="51.7592" rx="25.6564" ry="12.4936" fill="#8D6250"/>
<ellipse cx="37.9269" cy="59.7901" rx="10.2626" ry="9.37018" fill="#8D6250"/>
<ellipse cx="49.528" cy="60.2369" rx="10.2626" ry="9.37018" fill="#8D6250"/>
<ellipse cx="62.0216" cy="60.2369" rx="10.2626" ry="9.37018" fill="#8D6250"/>
<rect x="17.8479" y="43.2812" width="34.8035" height="22.7561" rx="11.3781" fill="#A2705C"/>
<rect x="27.6643" y="43.7275" width="10.7088" height="8.92398" rx="4.46199" fill="#1E1E1F"/>
<circle cx="51.5359" cy="34.803" r="3.56959" fill="#1E1E1F"/>
<circle cx="28.3338" cy="34.803" r="3.56959" fill="#1E1E1F"/>
<path d="M68.7482 29.1854C66.1652 22.3543 68.847 14.6695 75.1062 10.9655V10.9655C81.1835 7.36924 88.9578 8.52508 93.7626 13.7392L100.729 21.2986C107.702 28.8665 105.961 40.9249 97.14 46.1445L95.6746 47.0117C87.066 52.106 75.9249 48.1658 72.3725 38.7706L68.7482 29.1854Z" fill="#7C503E"/>
</svg>
