<svg width="19" height="19" viewBox="0 0 19 19" fill="none" xmlns="http://www.w3.org/2000/svg">
<path fill-rule="evenodd" clip-rule="evenodd" d="M17.9706 1.70711C18.3612 1.31658 18.3612 0.683417 17.9706 0.292893C17.5801 -0.0976313 16.9469 -0.0976309 16.5564 0.292893L9.13175 7.71756L1.70711 0.292922C1.31658 -0.0976023 0.683417 -0.0976023 0.292893 0.292922C-0.0976313 0.683446 -0.0976309 1.31661 0.292893 1.70714L7.71753 9.13177L0.292958 16.5563C-0.0975661 16.9469 -0.0975661 17.58 0.292958 17.9706C0.683482 18.3611 1.31665 18.3611 1.70717 17.9706L9.13175 10.546L16.5563 17.9706C16.9469 18.3611 17.58 18.3611 17.9706 17.9706C18.3611 17.5801 18.3611 16.9469 17.9706 16.5564L10.546 9.13177L17.9706 1.70711Z" fill="white"/>
</svg>
