<svg width="14" height="23" viewBox="0 0 14 23" fill="none" xmlns="http://www.w3.org/2000/svg">
<mask id="path-1-inside-1_1044_52" fill="white">
<path fill-rule="evenodd" clip-rule="evenodd" d="M7 2.21875C3.13401 2.21875 0 5.35275 0 9.21875V22.605H14V9.21875C14 5.35276 10.866 2.21875 7 2.21875Z"/>
</mask>
<path fill-rule="evenodd" clip-rule="evenodd" d="M7 2.21875C3.13401 2.21875 0 5.35275 0 9.21875V22.605H14V9.21875C14 5.35276 10.866 2.21875 7 2.21875Z" fill="#282828"/>
<path d="M0 22.605H-2V24.605H0V22.605ZM14 22.605V24.605H16V22.605H14ZM2 9.21875C2 6.45732 4.23857 4.21875 7 4.21875V0.21875C2.02944 0.21875 -2 4.24818 -2 9.21875H2ZM2 22.605V9.21875H-2V22.605H2ZM0 24.605H14V20.605H0V24.605ZM12 9.21875V22.605H16V9.21875H12ZM7 4.21875C9.76142 4.21875 12 6.45733 12 9.21875H16C16 4.24819 11.9706 0.21875 7 0.21875V4.21875Z" fill="#1480FF" mask="url(#path-1-inside-1_1044_52)"/>
<circle cx="7" cy="4" r="4" fill="#F9C66A"/>
</svg>
