<svg width="214" height="241" viewBox="0 0 214 241" fill="none" xmlns="http://www.w3.org/2000/svg">
<path fill-rule="evenodd" clip-rule="evenodd" d="M120 0C68.0852 0 26 42.0852 26 94V214C26 214.334 26.0017 214.667 26.0052 215H213.995C213.998 214.667 214 214.334 214 214V94C214 42.0852 171.915 0 120 0Z" fill="url(#paint0_linear_989_137)"/>
<path fill-rule="evenodd" clip-rule="evenodd" d="M92 155C89.2386 155 87 157.239 87 160V175C87 175.686 87.1383 176.34 87.3885 176.936C83.9621 182.834 82 189.688 82 197V200.954C82 205.873 82.8881 210.585 84.5127 214.938H159.487C161.112 210.585 162 205.873 162 200.954V197C162 186.856 158.224 177.593 152 170.542V160C152 157.239 149.761 155 147 155H92ZM122 240.954L121.907 240.954H122.093L122 240.954Z" fill="#4D4C4C"/>
<ellipse cx="127" cy="194.5" rx="13" ry="11.5" fill="white"/>
<ellipse cx="77" cy="193.5" rx="14" ry="12.5" fill="white"/>
<path d="M3.45001 173.168C1.85236 169.849 4.27134 166 7.95537 166H71.312C73.2331 166 74.9843 167.101 75.8174 168.832L95.55 209.832C97.1476 213.151 94.7287 217 91.0446 217H27.688C25.7669 217 24.0157 215.899 23.1826 214.168L3.45001 173.168Z" fill="#D9D9D9"/>
<rect x="31" y="207" width="103" height="10" rx="5" fill="#D9D9D9"/>
<ellipse cx="117.5" cy="133.5" rx="39.5" ry="38.5" fill="white"/>
<path d="M76 150C76 137.85 85.8497 128 98 128H111C123.15 128 133 137.85 133 150C133 162.15 123.15 172 111 172H104.5H98C85.8497 172 76 162.15 76 150Z" fill="white"/>
<rect x="83" y="136" width="20" height="13" rx="6.5" fill="#1E1E1E"/>
<path d="M137.484 84.4088C140.085 80.8639 145.666 82.1609 146.438 86.4896L151.58 115.344C152.21 118.877 149.022 121.904 145.526 121.091L123.044 115.867C119.548 115.054 118.021 110.932 120.145 108.038L137.484 84.4088Z" fill="url(#paint1_linear_989_137)"/>
<path d="M99.9577 85.3422C101.318 81.1698 107.01 80.6492 109.105 84.5055L116.915 98.8814C118.63 102.038 116.554 105.92 112.976 106.247L100.095 107.426C96.517 107.753 93.772 104.312 94.8858 100.896L99.9577 85.3422Z" fill="white"/>
<circle cx="112.5" cy="124.5" r="3.5" fill="#1E1E1E"/>
<circle cx="99.5" cy="124.5" r="3.5" fill="#1E1E1E"/>
<ellipse cx="117.5" cy="133.5" rx="39.5" ry="38.5" fill="white"/>
<path d="M83 150C83 137.85 92.8497 128 105 128H118C130.15 128 140 137.85 140 150C140 162.15 130.15 172 118 172H111.5H105C92.8497 172 83 162.15 83 150Z" fill="white"/>
<rect x="94" y="136" width="20" height="13" rx="6.5" fill="#1E1E1E"/>
<path d="M137.484 84.4088C140.085 80.8639 145.666 82.1609 146.438 86.4896L151.58 115.344C152.21 118.877 149.022 121.904 145.526 121.091L123.044 115.867C119.548 115.054 118.021 110.932 120.145 108.038L137.484 84.4088Z" fill="url(#paint2_linear_989_137)"/>
<path d="M99.9577 85.3422C101.318 81.1698 107.01 80.6492 109.105 84.5055L116.915 98.8814C118.63 102.038 116.554 105.92 112.976 106.247L100.095 107.426C96.517 107.753 93.772 104.312 94.8858 100.896L99.9577 85.3422Z" fill="white"/>
<circle cx="117.5" cy="124.5" r="3.5" fill="#1E1E1E"/>
<circle cx="102.5" cy="124.5" r="3.5" fill="#1E1E1E"/>
<rect x="101" y="25.2939" width="42" height="38.2941" rx="10" fill="white"/>
<path d="M123.939 36.1455H119.377L119.773 49.4082H123.543L123.939 36.1455ZM119.272 53.0996C119.245 54.4312 120.34 55.499 121.645 55.499C122.91 55.499 124.031 54.4312 124.044 53.0996C124.031 51.8076 122.91 50.7529 121.645 50.7529C120.34 50.7529 119.245 51.8076 119.272 53.0996Z" fill="#121212"/>
<path d="M122 74.7056L116.651 60.8085L127.349 60.8085L122 74.7056Z" fill="white"/>
<path fill-rule="evenodd" clip-rule="evenodd" d="M138.429 133.94L135 128L131.571 133.94C131.208 134.542 131 135.247 131 136C131 138.209 132.791 140 135 140C137.209 140 139 138.209 139 136C139 135.247 138.792 134.542 138.429 133.94Z" fill="#7C90FF"/>
<defs>
<linearGradient id="paint0_linear_989_137" x1="120" y1="0" x2="120" y2="215" gradientUnits="userSpaceOnUse">
<stop stop-color="#99B9FF"/>
<stop offset="1" stop-color="#6C7BFF"/>
</linearGradient>
<linearGradient id="paint1_linear_989_137" x1="144.39" y1="74.9981" x2="145.975" y2="64.6115" gradientUnits="userSpaceOnUse">
<stop stop-color="white"/>
<stop offset="1" stop-color="#FFCBCB"/>
</linearGradient>
<linearGradient id="paint2_linear_989_137" x1="144.39" y1="74.9981" x2="145.975" y2="64.6115" gradientUnits="userSpaceOnUse">
<stop stop-color="white"/>
<stop offset="1" stop-color="#FFCBCB"/>
</linearGradient>
</defs>
</svg>
