<svg width="11" height="12" viewBox="0 0 11 12" fill="none" xmlns="http://www.w3.org/2000/svg">
<path fill-rule="evenodd" clip-rule="evenodd" d="M8.06375 7.28044C8.58125 7.55862 8.88617 8.14641 8.77781 8.75638C8.64279 9.51649 7.91713 10.0232 7.15703 9.88819C7.11099 9.88001 7.06589 9.86967 7.0218 9.85728C6.95803 9.85727 6.87811 9.83477 6.77984 9.78585C5.97417 9.38482 5.39481 9.5927 5.07102 9.79217C4.76423 10.0533 4.34746 10.1805 3.91979 10.1046C3.15968 9.96953 2.65296 9.24388 2.78798 8.48377C2.82529 8.27378 2.90767 8.08313 3.0234 7.92001C3.04906 7.87215 3.0971 7.81356 3.17109 7.74281L3.19309 7.72275C3.20165 7.7145 3.21031 7.70636 3.21907 7.69834C3.68509 7.25286 3.96171 6.58719 4.0337 6.15063C4.03709 6.11758 4.04151 6.08443 4.04697 6.05121L4.04734 6.04743L4.04757 6.04758L4.05055 6.0303C4.2078 5.14511 5.05286 4.555 5.93805 4.71225C6.69381 4.84651 7.23447 5.48214 7.27856 6.21606C7.34441 6.45054 7.55806 6.85533 8.06375 7.28044Z" fill="#FF646C"/>
<ellipse cx="4.17507" cy="2.77308" rx="1.18692" ry="1.58573" transform="rotate(-7.26155 4.17507 2.77308)" fill="#FF646C"/>
<ellipse cx="6.85916" cy="2.66041" rx="1.18692" ry="1.58573" transform="rotate(3.43881 6.85916 2.66041)" fill="#FF646C"/>
<ellipse cx="8.75417" cy="5.27569" rx="1.10566" ry="1.48303" transform="rotate(20.2159 8.75417 5.27569)" fill="#FF646C"/>
<ellipse cx="2.38528" cy="5.58064" rx="1.1087" ry="1.4871" transform="rotate(-18.0684 2.38528 5.58064)" fill="#FF646C"/>
</svg>
