<svg width="17" height="17" viewBox="0 0 17 17" fill="none" xmlns="http://www.w3.org/2000/svg">
<g style="mix-blend-mode:darken">
<path fill-rule="evenodd" clip-rule="evenodd" d="M11.2107 11.4858C11.7437 12.0298 11.8947 12.8746 11.5261 13.5882C11.0662 14.4784 9.97176 14.8272 9.08157 14.3674C9.02688 14.3391 8.97425 14.3085 8.92371 14.2756C8.84527 14.2506 8.75567 14.1922 8.65376 14.0948C7.80864 13.2868 7.0098 13.3224 6.53185 13.4454C6.05137 13.6504 5.48644 13.6475 4.98605 13.389C4.09586 12.9291 3.74702 11.8346 4.20689 10.9444C4.33433 10.6978 4.51049 10.4927 4.71753 10.3348C4.76792 10.2859 4.84943 10.2324 4.96684 10.1739L4.98933 10.1634C5.01138 10.1521 5.03364 10.1413 5.05611 10.1309C5.79805 9.7569 6.39108 9.04514 6.64753 8.5348C6.66512 8.49338 6.68414 8.45226 6.70461 8.4115L6.70538 8.40968L6.70547 8.40979L6.71593 8.38928C7.25148 7.3526 8.52602 6.94635 9.5627 7.4819C10.4478 7.93914 10.8733 8.93503 10.6456 9.86167C10.6369 10.1779 10.7461 10.7629 11.2107 11.4858Z" fill="#424242"/>
<ellipse cx="8.12385" cy="4.40045" rx="1.54046" ry="2.05806" transform="rotate(9.98621 8.12385 4.40045)" fill="#424242"/>
<ellipse cx="11.4939" cy="5.29425" rx="1.54046" ry="2.05806" transform="rotate(20.6866 11.4939 5.29425)" fill="#424242"/>
<ellipse cx="12.8367" cy="9.2639" rx="1.435" ry="1.92477" transform="rotate(37.4636 12.8367 9.2639)" fill="#424242"/>
<ellipse cx="4.82508" cy="7.19098" rx="1.43894" ry="1.93005" transform="rotate(-0.820632 4.82508 7.19098)" fill="#424242"/>
</g>
</svg>
