<svg width="28" height="39" viewBox="0 0 28 39" fill="none" xmlns="http://www.w3.org/2000/svg">
<path fill-rule="evenodd" clip-rule="evenodd" d="M15.5245 25.1855C15.5457 26.5281 15.5329 27.7314 15.5329 28.8038C15.5329 30.9444 12.2805 30.9444 12.2805 28.8038C12.2805 27.8749 12.2932 26.5957 12.3102 25.042C9.87188 23.674 10.7285 20.0768 13.9936 20.0388C17.3139 20.0008 18.1663 23.8344 15.5245 25.1897V25.1855ZM7.27669 11.903H20.7191C22.6315 0.258602 5.36423 0.224826 7.27669 11.903ZM24.0691 39C26.2317 39 28 37.2394 28 35.0862V15.8168C28 13.7649 26.3929 12.0676 24.3701 11.9156C26.3462 -3.98454 1.65379 -3.95921 3.62987 11.9156C1.60715 12.0676 0 13.7649 0 15.8168V35.0819C0 37.2352 1.76829 38.9958 3.93094 38.9958H24.0691V39Z" fill="white"/>
</svg>
