<svg width="34" height="35" viewBox="0 0 34 35" fill="none" xmlns="http://www.w3.org/2000/svg">
<path fill-rule="evenodd" clip-rule="evenodd" d="M24.9442 22.025C26.6906 23.061 27.6595 25.134 27.1996 27.2255C26.6259 29.8351 24.0453 31.4854 21.4357 30.9117C21.2751 30.8764 21.1181 30.8334 20.9651 30.7834C20.7459 30.7726 20.4752 30.6835 20.1462 30.5027C17.4145 29.0016 15.3809 29.641 14.2336 30.2858C13.1362 31.1446 11.6781 31.5252 10.2108 31.2025C7.60122 30.6288 5.95088 28.0482 6.52465 25.4386C6.68362 24.7156 6.99665 24.0662 7.42166 23.5174C7.51786 23.3566 7.6912 23.1626 7.95381 22.9312C7.9713 22.9167 7.98873 22.9022 8.00609 22.8875C8.05415 22.8442 8.10304 22.8018 8.15274 22.7605C9.80844 21.2876 10.8483 19.0459 11.159 17.5543C11.1759 17.4351 11.1968 17.3157 11.2216 17.1962L11.2223 17.1915L11.2225 17.1917C11.2267 17.1717 11.231 17.1517 11.2354 17.1317C11.9036 14.0927 14.9089 12.1708 17.9478 12.839C20.5423 13.4095 22.3226 15.6833 22.3721 18.2273C22.5668 19.0482 23.25 20.4811 24.9442 22.025Z" fill="#96C6FF"/>
<ellipse cx="12.1238" cy="5.88599" rx="4.10788" ry="5.48815" transform="rotate(-4.93429 12.1238 5.88599)" fill="#96C6FF"/>
<ellipse cx="21.4216" cy="5.8759" rx="4.10788" ry="5.48815" transform="rotate(5.76607 21.4216 5.8759)" fill="#96C6FF"/>
<ellipse cx="27.6072" cy="15.1827" rx="3.82667" ry="5.13271" transform="rotate(22.5431 27.6072 15.1827)" fill="#96C6FF"/>
<ellipse cx="5.54012" cy="15.3416" rx="3.83718" ry="5.1468" transform="rotate(-15.7411 5.54012 15.3416)" fill="#96C6FF"/>
</svg>
