<svg width="16" height="16" viewBox="0 0 16 16" fill="none" xmlns="http://www.w3.org/2000/svg">
<path fill-rule="evenodd" clip-rule="evenodd" d="M11.3387 10.2372C12.0657 10.6286 12.4939 11.4547 12.3416 12.3119C12.1518 13.3806 11.1315 14.0931 10.0628 13.9032C9.99805 13.8917 9.93465 13.8772 9.87268 13.8598C9.78303 13.8597 9.67068 13.8281 9.53253 13.7593C8.39978 13.1955 7.5852 13.4878 7.12994 13.7682C6.69858 14.1355 6.11257 14.3143 5.51123 14.2075C4.4425 14.0176 3.73004 12.9974 3.91989 11.9286C3.97217 11.6343 4.08742 11.3671 4.24931 11.1382C4.28498 11.0704 4.35297 10.9871 4.45851 10.8861C5.15533 10.2603 5.56766 9.27986 5.67172 8.64533C5.67637 8.60052 5.68237 8.55557 5.68973 8.51055L5.69053 8.50241L5.69102 8.50273L5.6951 8.4791C5.91619 7.23451 7.10436 6.4048 8.34895 6.6259C9.41146 6.81464 10.1716 7.70821 10.2337 8.73999C10.3264 9.06984 10.627 9.6393 11.3387 10.2372Z" fill="#FF646C"/>
<ellipse cx="5.87023" cy="3.89917" rx="1.66882" ry="2.22956" transform="rotate(-7.26155 5.87023 3.89917)" fill="#FF646C"/>
<ellipse cx="9.64402" cy="3.74068" rx="1.66882" ry="2.22956" transform="rotate(3.43881 9.64402 3.74068)" fill="#FF646C"/>
<ellipse cx="12.3085" cy="7.41822" rx="1.55458" ry="2.08516" transform="rotate(20.2159 12.3085 7.41822)" fill="#FF646C"/>
<ellipse cx="3.35367" cy="7.84707" rx="1.55885" ry="2.09088" transform="rotate(-18.0684 3.35367 7.84707)" fill="#FF646C"/>
</svg>
