<svg width="37" height="37" viewBox="0 0 37 37" fill="none" xmlns="http://www.w3.org/2000/svg">
<path d="M35.52 33.485H1.48C0.661375 33.485 0 34.1464 0 34.965V36.63C0 36.8335 0.1665 37 0.37 37H36.63C36.8335 37 37 36.8335 37 36.63V34.965C37 34.1464 36.3386 33.485 35.52 33.485ZM6.73863 29.6C6.83113 29.6 6.92363 29.5908 7.01613 29.5769L14.7954 28.2125C14.8879 28.194 14.9758 28.1524 15.0405 28.083L34.6459 8.47762C34.6887 8.43484 34.7228 8.38401 34.746 8.32806C34.7692 8.27211 34.7811 8.21214 34.7811 8.15156C34.7811 8.09099 34.7692 8.03101 34.746 7.97506C34.7228 7.91911 34.6887 7.86829 34.6459 7.8255L26.9591 0.134125C26.8713 0.0462501 26.7556 0 26.6307 0C26.5059 0 26.3903 0.0462501 26.3024 0.134125L6.697 19.7395C6.62762 19.8089 6.586 19.8921 6.5675 19.9846L5.20313 27.7639C5.15813 28.0116 5.17421 28.2666 5.24996 28.5068C5.32572 28.7469 5.45886 28.965 5.63787 29.1421C5.94312 29.4381 6.327 29.6 6.73863 29.6Z" fill="#3A3A3A"/>
</svg>
