<svg width="25" height="25" viewBox="0 0 25 25" fill="none" xmlns="http://www.w3.org/2000/svg">
<circle cx="12.5" cy="12.5" r="12" fill="white" stroke="#DADADA"/>
<g style="mix-blend-mode:darken">
<path fill-rule="evenodd" clip-rule="evenodd" d="M16.9227 14.6434C17.7614 14.9187 18.367 15.708 18.367 16.6388C18.367 17.7985 17.4269 18.7386 16.2672 18.7386C16.1964 18.7386 16.1264 18.7351 16.0574 18.7282C15.9633 18.7445 15.8397 18.7321 15.6824 18.6859C14.384 18.304 13.5814 18.7651 13.1553 19.1455C12.7701 19.6115 12.1877 19.9084 11.5359 19.9084C10.3763 19.9084 9.43616 18.9683 9.43616 17.8086C9.43616 17.4872 9.50839 17.1826 9.63751 16.9103C9.66337 16.8332 9.71873 16.735 9.80828 16.6127L9.82492 16.5912C9.84218 16.567 9.85994 16.5432 9.87818 16.5197C10.4421 15.7407 10.6735 14.6938 10.6658 14.0333C10.662 13.982 10.6597 13.9302 10.6591 13.8781L10.6588 13.875L10.659 13.8751L10.6589 13.8481C10.6589 12.4976 11.7537 11.4028 13.1042 11.4028C14.2578 11.4028 15.2248 12.2016 15.4823 13.2762C15.6415 13.6057 16.0638 14.1478 16.9227 14.6434Z" fill="#E3E3E3"/>
<ellipse cx="9.98724" cy="8.99845" rx="1.78293" ry="2.38201" transform="rotate(-17.3347 9.98724 8.99845)" fill="#E3E3E3"/>
<ellipse cx="13.9277" cy="8.12784" rx="1.78294" ry="2.38201" transform="rotate(-6.63436 13.9277 8.12784)" fill="#E3E3E3"/>
<ellipse cx="17.4172" cy="11.4961" rx="1.66088" ry="2.22774" transform="rotate(10.1427 17.4172 11.4961)" fill="#E3E3E3"/>
<ellipse cx="8.0777" cy="13.6203" rx="1.66544" ry="2.23386" transform="rotate(-28.1416 8.0777 13.6203)" fill="#E3E3E3"/>
</g>
</svg>
