<svg width="16" height="16" viewBox="0 0 16 16" fill="none" xmlns="http://www.w3.org/2000/svg">
<circle cx="8" cy="8" r="8" fill="#1480FF" fill-opacity="0.15"/>
<path d="M7.25977 10.3467V10.4102H8.35156V10.3467C8.37695 9.24854 8.6626 8.75977 9.45605 8.27734C10.2432 7.79492 10.7129 7.10303 10.7129 6.10645C10.7129 4.70361 9.67822 3.68164 8.08496 3.68164C6.63135 3.68164 5.46973 4.57666 5.40625 6.11914H6.56152C6.63135 5.07178 7.36133 4.64014 8.08496 4.64648C8.92285 4.64014 9.5957 5.19238 9.5957 6.05566C9.5957 6.7666 9.1958 7.27441 8.66895 7.5918C7.79297 8.125 7.27246 8.64551 7.25977 10.3467ZM7.03125 12.251C7.01855 12.7017 7.39941 13.0698 7.84375 13.0762C8.29443 13.0698 8.6626 12.7017 8.65625 12.251C8.6626 11.8066 8.29443 11.4385 7.84375 11.4385C7.39941 11.4385 7.01855 11.8066 7.03125 12.251Z" fill="#1480FF"/>
</svg>
