<svg width="60" height="60" viewBox="0 0 60 60" fill="none" xmlns="http://www.w3.org/2000/svg">
<rect width="60" height="60" rx="10" fill="#D9E5FE"/>
<mask id="mask0_1119_765" style="mask-type:alpha" maskUnits="userSpaceOnUse" x="0" y="0" width="60" height="60">
<rect width="60" height="60" rx="10" fill="#D9E5FE"/>
</mask>
<g mask="url(#mask0_1119_765)">
<rect y="22.5" width="20" height="37.5" fill="#B3C2DF"/>
<rect x="13.3333" y="35" width="16.6667" height="25" fill="#929DB4"/>
<rect x="40.8335" y="45.833" width="10" height="14.1667" fill="#B3C2DF"/>
<rect x="50" y="37.5" width="10" height="22.5" fill="#B3C2DF"/>
</g>
<path fill-rule="evenodd" clip-rule="evenodd" d="M13.4289 13.6091C12.9655 13.0734 12.6852 12.375 12.6852 11.6112C12.6852 9.92361 14.0533 8.55558 15.7408 8.55558C16.167 8.55558 16.5727 8.64282 16.9412 8.8004C17.4961 6.89351 19.2566 5.5 21.3426 5.5C22.5715 5.5 23.6873 5.98359 24.5103 6.77084C24.9513 6.60741 25.4283 6.51813 25.9261 6.51813C28.1762 6.51813 30.0002 8.34217 30.0002 10.5922C30.0002 12.8423 28.1762 14.6663 25.9261 14.6663C25.926 14.6663 25.926 14.6663 25.9259 14.6663V14.6665H21.3858C21.3714 14.6667 21.357 14.6667 21.3426 14.6667C21.3282 14.6667 21.3138 14.6667 21.2994 14.6665H15.7761C15.7643 14.6667 15.7526 14.6667 15.7408 14.6667C15.729 14.6667 15.7173 14.6667 15.7055 14.6665H11.6665L13.4289 13.6091Z" fill="white"/>
<path fill-rule="evenodd" clip-rule="evenodd" d="M38.9901 24.8559C38.5982 24.403 38.3612 23.8124 38.3612 23.1665C38.3612 21.7398 39.5178 20.5832 40.9445 20.5832C41.3048 20.5832 41.6479 20.6569 41.9594 20.7902C42.4286 19.1781 43.917 18 45.6805 18C46.7197 18 47.6633 18.4091 48.3592 19.0749C48.7318 18.9369 49.1349 18.8615 49.5555 18.8615C51.4578 18.8615 53 20.4036 53 22.3059C53 24.2083 51.4578 25.7504 49.5555 25.7504C49.5376 25.7504 49.5198 25.7502 49.5019 25.75H45.6943C45.6897 25.75 45.6851 25.75 45.6805 25.75C45.6759 25.75 45.6714 25.75 45.6668 25.75H37.5L38.9901 24.8559Z" fill="white"/>
</svg>
