<svg width="58" height="77" viewBox="0 0 58 77" fill="none" xmlns="http://www.w3.org/2000/svg">
<g filter="url(#filter0_d_877_678)">
<rect x="27.7222" y="6" width="2.53173" height="26.1612" fill="#207A00"/>
<rect x="10.0244" y="15.2832" width="37.976" height="5.06346" rx="1" transform="rotate(0.276897 10.0244 15.2832)" fill="white" fill-opacity="0.9"/>
<path d="M12.637 18.16C12.5934 17.5798 13.0524 17.085 13.6342 17.085H44.3906C44.9724 17.085 45.4314 17.5798 45.3878 18.16L42.1099 61.7311C42.0706 62.2529 41.6359 62.6561 41.1127 62.6561H16.9121C16.389 62.6561 15.9542 62.2529 15.915 61.7311L12.637 18.16Z" fill="white" fill-opacity="0.9"/>
<path d="M15.9803 30.6975C15.9408 30.1198 16.3989 29.6294 16.978 29.6294H41.828C42.4122 29.6294 42.872 30.1281 42.8247 30.7103L40.4512 59.935C40.409 60.4542 39.9754 60.8541 39.4545 60.8541H18.9742C18.4484 60.8541 18.0124 60.4468 17.9766 59.9222L15.9803 30.6975Z" fill="url(#paint0_linear_877_678)"/>
<g style="mix-blend-mode:soft-light">
<g style="mix-blend-mode:hard-light">
<rect x="25.1903" y="29.1211" width="6.75128" height="6.75128" rx="2" transform="rotate(-25.1322 25.1903 29.1211)" fill="url(#paint1_linear_877_678)"/>
</g>
<g style="mix-blend-mode:hard-light">
<rect x="30.2538" y="37.7983" width="6.75128" height="6.75128" rx="2" transform="rotate(-45.2339 30.2538 37.7983)" fill="url(#paint2_linear_877_678)"/>
</g>
<g style="mix-blend-mode:hard-light">
<rect x="21.2726" y="31.3389" width="6.75128" height="6.75128" rx="2" transform="rotate(9.58565 21.2726 31.3389)" fill="url(#paint3_linear_877_678)"/>
</g>
</g>
</g>
<defs>
<filter id="filter0_d_877_678" x="0.00476074" y="0" width="57.9904" height="76.6562" filterUnits="userSpaceOnUse" color-interpolation-filters="sRGB">
<feFlood flood-opacity="0" result="BackgroundImageFix"/>
<feColorMatrix in="SourceAlpha" type="matrix" values="0 0 0 0 0 0 0 0 0 0 0 0 0 0 0 0 0 0 127 0" result="hardAlpha"/>
<feOffset dy="4"/>
<feGaussianBlur stdDeviation="5"/>
<feComposite in2="hardAlpha" operator="out"/>
<feColorMatrix type="matrix" values="0 0 0 0 0 0 0 0 0 0 0 0 0 0 0 0 0 0 0.25 0"/>
<feBlend mode="normal" in2="BackgroundImageFix" result="effect1_dropShadow_877_678"/>
<feBlend mode="normal" in="SourceGraphic" in2="effect1_dropShadow_877_678" result="shape"/>
</filter>
<linearGradient id="paint0_linear_877_678" x1="29.4099" y1="29.6294" x2="29.4099" y2="60.8541" gradientUnits="userSpaceOnUse">
<stop stop-color="#916161"/>
<stop offset="1" stop-color="#4F1E1E"/>
</linearGradient>
<linearGradient id="paint1_linear_877_678" x1="28.5659" y1="29.1211" x2="28.5659" y2="35.8724" gradientUnits="userSpaceOnUse">
<stop stop-color="white"/>
<stop offset="1" stop-color="#DDEDFF"/>
</linearGradient>
<linearGradient id="paint2_linear_877_678" x1="33.6294" y1="37.7983" x2="33.6294" y2="44.5496" gradientUnits="userSpaceOnUse">
<stop stop-color="white"/>
<stop offset="1" stop-color="#DDEDFF"/>
</linearGradient>
<linearGradient id="paint3_linear_877_678" x1="24.6482" y1="31.3389" x2="24.6482" y2="38.0902" gradientUnits="userSpaceOnUse">
<stop stop-color="white"/>
<stop offset="1" stop-color="#DDEDFF"/>
</linearGradient>
</defs>
</svg>
