<svg width="38" height="52" viewBox="0 0 38 52" fill="none" xmlns="http://www.w3.org/2000/svg">
<path d="M2.63703 7.15998C2.59338 6.57977 3.05237 6.08496 3.63421 6.08496H34.3906C34.9724 6.08496 35.4314 6.57978 35.3878 7.15998L32.1099 50.7311C32.0706 51.2529 31.6359 51.6561 31.1127 51.6561H6.91213C6.38895 51.6561 5.9542 51.2529 5.91495 50.7311L2.63703 7.15998Z" fill="white"/>
<rect x="0.0244141" y="4.2832" width="37.976" height="5.06346" rx="1" transform="rotate(0.276897 0.0244141 4.2832)" fill="#181818"/>
<rect x="5" width="29" height="5" rx="1" fill="#181818"/>
<path d="M2.10536 17.0957C2.04888 16.5083 2.51066 16 3.10077 16H34.8992C35.4893 16 35.9511 16.5083 35.8946 17.0957L33.587 41.0957C33.5376 41.6086 33.1068 42 32.5915 42H5.40846C4.89325 42 4.46236 41.6086 4.41305 41.0957L2.10536 17.0957Z" fill="#987063"/>
</svg>
