<svg width="48" height="44" viewBox="0 0 48 44" fill="none" xmlns="http://www.w3.org/2000/svg">
<rect y="40" width="48" height="4" rx="1" fill="#604444"/>
<rect x="5" y="32.125" width="37" height="7.875" fill="#FFE297"/>
<rect x="5" y="18.625" width="37" height="7.875" fill="#FFE297"/>
<rect x="5" y="26.5" width="37" height="5.625" fill="white"/>
<path d="M5 15C5 13.8954 5.89543 13 7 13H40C41.1046 13 42 13.8954 42 15V18.625H5V15Z" fill="white"/>
<path d="M36.3939 13H40C41.1046 13 42 13.8954 42 15V40H36.3939V13Z" fill="white"/>
<path d="M19.9375 5.625L23.3125 1.6875L26.6875 3.375L28.375 6.1875V9.5625L26.6875 11.25L23.875 12.9375L20.5 11.25L19.375 9L19.9375 5.625Z" fill="#8F432B"/>
<path d="M23.875 13.4956C26.9765 13.4956 29.5 11.1433 29.5 8.25097C29.5 4.94581 26.8831 2.03311 25.3234 0.59098C24.4705 -0.197232 23.2794 -0.197232 22.4265 0.59098C20.8669 2.03305 18.25 4.9462 18.25 8.25097C18.25 11.1433 20.7735 13.4956 23.875 13.4956L23.875 13.4956ZM27.8221 9.3586C27.8221 9.69859 27.5915 9.97574 27.3081 9.97574C27.0248 9.97574 26.7942 9.69861 26.7942 9.3586C26.7942 9.01859 27.0248 8.74146 27.3081 8.74146C27.5915 8.74146 27.8221 9.01859 27.8221 9.3586ZM26.7371 4.71495C27.0204 4.71495 27.251 4.99186 27.251 5.33187C27.251 5.67187 27.0204 5.949 26.7371 5.949C26.4537 5.949 26.2232 5.6721 26.2232 5.33187C26.2232 4.9921 26.4537 4.71495 26.7371 4.71495ZM23.949 2.95964C24.2323 2.95964 24.4629 3.23676 24.4629 3.57678C24.4629 3.91679 24.2323 4.19392 23.949 4.19392C23.6657 4.19392 23.4351 3.91679 23.4351 3.57678C23.4351 3.23657 23.6657 2.95964 23.949 2.95964ZM23.949 6.60014C24.2323 6.60014 24.4629 6.87727 24.4629 7.21728C24.4629 7.5573 24.2323 7.83442 23.949 7.83442C23.6657 7.83442 23.4351 7.5573 23.4351 7.21728C23.4351 6.87707 23.6657 6.60014 23.949 6.60014ZM23.949 10.2406C24.2323 10.2406 24.4629 10.5178 24.4629 10.8578C24.4629 11.1978 24.2323 11.4749 23.949 11.4749C23.6657 11.4749 23.4351 11.1978 23.4351 10.8578C23.4351 10.5176 23.6657 10.2406 23.949 10.2406ZM21.1611 4.7149C21.4444 4.7149 21.675 4.9918 21.675 5.33181C21.675 5.67182 21.4445 5.94895 21.1611 5.94895C20.8778 5.94895 20.6472 5.67204 20.6472 5.33181C20.6472 4.99204 20.8778 4.7149 21.1611 4.7149ZM20.59 8.74146C20.8734 8.74146 21.1039 9.01859 21.1039 9.3586C21.1039 9.69861 20.8734 9.97574 20.59 9.97574C20.3067 9.97574 20.0761 9.69861 20.0761 9.3586C20.0761 9.01859 20.3067 8.74146 20.59 8.74146Z" fill="url(#paint0_linear_877_649)"/>
<rect x="14.875" y="10.125" width="18" height="5.625" rx="2" fill="white"/>
<defs>
<linearGradient id="paint0_linear_877_649" x1="23.875" y1="13.4956" x2="23.875" y2="-0.000177875" gradientUnits="userSpaceOnUse">
<stop stop-color="#FF9C65"/>
<stop offset="0.40625" stop-color="#FF5050"/>
</linearGradient>
</defs>
</svg>
