<svg width="50" height="81" viewBox="0 0 50 81" fill="none" xmlns="http://www.w3.org/2000/svg">
<g filter="url(#filter0_d_877_677)">
<path d="M11.7143 6.85915C11.7143 6.38466 12.098 6 12.5714 6H37.4286C37.902 6 38.2857 6.38466 38.2857 6.85915V7.71831C38.2857 8.19281 37.902 8.57746 37.4286 8.57746H12.5714C12.098 8.57746 11.7143 8.19281 11.7143 7.71831V6.85915Z" fill="#D9D9D9"/>
<path d="M12.935 9.44325C13.2402 8.90787 13.8082 8.57746 14.4234 8.57746H35.5766C36.1918 8.57746 36.7598 8.90787 37.065 9.44325L39.7741 14.1954C39.9221 14.455 40 14.7488 40 15.0479V61.2723C40 61.6441 39.8797 62.0059 39.6571 62.3033L37.9484 64.587C37.6215 65.0238 37.107 65.2789 36.5623 65.2743L13.507 65.077C12.9239 65.072 12.3833 64.7703 12.072 64.276L10.2647 61.4062C10.0918 61.1316 10 60.8136 10 60.4889V15.0479C10 14.7488 10.0779 14.455 10.2259 14.1954L12.935 9.44325Z" fill="#1C1C1C"/>
<path d="M11.7143 65.2817C11.7143 64.8072 12.098 64.4225 12.5714 64.4225H37.4286C37.902 64.4225 38.2857 64.8072 38.2857 65.2817V66.1408C38.2857 66.6153 37.902 67 37.4286 67H12.5714C12.098 67 11.7143 66.6153 11.7143 66.1408V65.2817Z" fill="#D9D9D9"/>
<path d="M30.0157 32.3237C31.1117 32.9501 31.7356 34.2307 31.472 35.5379C31.1431 37.1687 29.5576 38.2235 27.9306 37.8939C27.8306 37.8736 27.7327 37.8485 27.6372 37.819C27.5009 37.8147 27.3318 37.7621 27.1255 37.6529C25.4126 36.747 24.156 37.167 23.4502 37.5806C22.7777 38.1267 21.8761 38.379 20.9615 38.1936C19.3345 37.864 18.2822 36.2748 18.6111 34.644C18.7023 34.1918 18.8901 33.7839 19.1487 33.4375C19.2069 33.3366 19.3123 33.2144 19.4723 33.0681L19.4998 33.0443C19.5322 33.0139 19.5651 32.9843 19.5987 32.9554C20.6089 32.0208 21.2296 30.6169 21.4065 29.6864C21.4158 29.612 21.4275 29.5374 21.4416 29.4627L21.442 29.46L21.4496 29.4223C21.8325 27.5232 23.679 26.2948 25.5737 26.6787C27.1914 27.0065 28.3212 28.4036 28.3786 29.9872C28.5083 30.4962 28.9477 31.3807 30.0157 32.3237Z" fill="#C871FF"/>
<path d="M24.4212 22.1481C24.615 24.0255 23.6356 25.6653 22.2337 25.8107C20.8317 25.9561 19.5382 24.552 19.3444 22.6746C19.1506 20.7973 20.13 19.1575 21.5319 19.0121C22.9338 18.8667 24.2274 20.2708 24.4212 22.1481Z" fill="#C871FF"/>
<path d="M30.201 22.5203C30.0436 24.4011 28.7775 25.8301 27.373 25.712C25.9686 25.594 24.9576 23.9736 25.1149 22.0928C25.2723 20.212 26.5384 18.783 27.9428 18.9011C29.3473 19.0191 30.3583 20.6395 30.201 22.5203Z" fill="#C871FF"/>
<path d="M33.809 28.9119C33.1615 30.5534 31.6469 31.4919 30.4259 31.0081C29.205 30.5243 28.74 28.8014 29.3874 27.1598C30.0349 25.5183 31.5495 24.5798 32.7705 25.0636C33.9914 25.5474 34.4564 27.2704 33.809 28.9119Z" fill="#C871FF"/>
<path d="M20.1762 27.6808C20.6841 29.3761 20.0736 31.058 18.8127 31.4375C17.5518 31.817 16.1179 30.7504 15.6101 29.0552C15.1022 27.36 15.7127 25.6781 16.9736 25.2985C18.2345 24.919 19.6684 25.9856 20.1762 27.6808Z" fill="#C871FF"/>
<path d="M18.0931 49.0312L18.1722 48.495C18.1722 48.125 17.778 47.94 16.9895 47.94C16.8539 47.94 16.7597 47.9715 16.707 48.0344C16.6542 48.0973 16.6279 48.2043 16.6279 48.3553C16.6279 48.5064 16.6505 48.7153 16.6957 48.9821C16.7409 49.2514 16.7635 49.4565 16.7635 49.5975C16.7635 49.741 16.707 49.8127 16.594 49.8127C16.481 49.8127 16.4245 49.7372 16.4245 49.5862C16.4245 49.4377 16.442 49.2124 16.4772 48.9103C16.5124 48.6083 16.5299 48.4032 16.5299 48.2949C16.5299 48.0382 16.4835 47.9098 16.3906 47.9098C16.3303 47.9098 16.3002 47.9816 16.3002 48.125L16.3906 48.7518C16.3906 48.9003 16.3366 48.9745 16.2286 48.9745C16.1231 48.9745 16.0704 48.899 16.0704 48.748L16.157 48.0533L16.1533 47.4265V43.3753C16.1533 43.2193 16.1043 43.0934 16.0064 42.9978L16.0817 42.9185C16.1846 43.0192 16.3102 43.0695 16.4584 43.0695H19.5697C21.0714 43.0695 22.003 43.5591 22.3646 44.5382C22.4651 44.8151 22.5153 45.1108 22.5153 45.4255C22.5153 45.7376 22.4952 46.0069 22.455 46.2335C22.4173 46.4575 22.3684 46.6551 22.3081 46.8262C22.2478 46.9949 22.1625 47.1446 22.052 47.2755C21.944 47.4064 21.8348 47.5172 21.7243 47.6078C21.6163 47.6959 21.4782 47.7714 21.3099 47.8343C21.1417 47.8972 20.986 47.9463 20.8428 47.9815C20.6997 48.0143 20.5202 48.0394 20.3042 48.0571C19.9652 48.0847 19.5672 48.0986 19.1101 48.0986H18.564C18.353 48.0986 18.2476 48.2496 18.2476 48.5517L18.3078 49.0349C18.3078 49.1306 18.2752 49.1784 18.2099 49.1784C18.1321 49.1784 18.0931 49.1293 18.0931 49.0312ZM20.2515 46.4336C20.3293 46.3329 20.3896 46.2032 20.4323 46.0447C20.475 45.8836 20.4963 45.691 20.4963 45.467C20.4963 45.2405 20.4586 45.0517 20.3833 44.9007C20.308 44.7496 20.2075 44.6389 20.082 44.5684C19.9564 44.4979 19.817 44.4463 19.6639 44.4136C19.5107 44.3784 19.35 44.3595 19.1817 44.357C19.0135 44.352 18.8565 44.3482 18.7109 44.3457C18.3543 44.3406 18.1258 44.2878 18.0253 44.1871L17.95 44.2626C18.0454 44.3557 18.0931 44.4816 18.0931 44.6402V45.5085C18.0931 46.0875 18.0956 46.5204 18.1007 46.8073H18.9557C19.3851 46.8073 19.689 46.7696 19.8673 46.6941C20.0481 46.6186 20.1761 46.5317 20.2515 46.4336ZM18.3342 50.3677C18.3342 50.4835 18.2915 50.5414 18.2061 50.5414C18.1233 50.5414 18.0818 50.4936 18.0818 50.3979C18.0818 50.3048 18.0868 50.223 18.0969 50.1525C18.1095 50.082 18.1295 49.9914 18.1572 49.8807C18.1848 49.7724 18.2011 49.7045 18.2061 49.6768C18.2137 49.7095 18.2275 49.7636 18.2476 49.8391C18.2677 49.9172 18.2827 49.9776 18.2928 50.0204C18.3204 50.1387 18.3342 50.2545 18.3342 50.3677Z" fill="white"/>
<path d="M25.1799 48.7102L25.2062 48.3478C25.2062 48.2849 25.1761 48.2358 25.1158 48.2005C25.0556 48.1678 24.9903 48.1515 24.92 48.1515C24.8497 48.1515 24.7869 48.1703 24.7316 48.2081C24.6764 48.2458 24.6488 48.3 24.6488 48.3704V49.2388C24.6488 49.3647 24.6751 49.5497 24.7279 49.7938C24.7806 50.038 24.807 50.2117 24.807 50.3149C24.807 50.4206 24.7844 50.5074 24.7392 50.5754C24.694 50.6433 24.6312 50.6773 24.5508 50.6773C24.473 50.6773 24.414 50.6421 24.3738 50.5716C24.3336 50.5011 24.3135 50.4092 24.3135 50.296C24.3135 50.1827 24.3424 49.9864 24.4002 49.707C24.4579 49.4276 24.4868 49.2111 24.4868 49.0576C24.4868 48.4359 24.3713 48.125 24.1403 48.125C23.8289 48.125 23.6732 48.1124 23.6732 48.0873V48.0948C23.6732 48.2685 23.7108 48.5227 23.7862 48.8575C23.864 49.1948 23.903 49.4364 23.903 49.5824C23.903 49.7284 23.8766 49.8479 23.8238 49.9411C23.7711 50.0367 23.6895 50.0845 23.579 50.0845C23.471 50.0845 23.3857 50.0392 23.3229 49.9486C23.2626 49.858 23.2325 49.7397 23.2325 49.5937C23.2325 49.4503 23.2689 49.2023 23.3417 48.8499C23.4145 48.5001 23.4509 48.2345 23.4509 48.0533C22.8558 47.8645 22.4076 47.5562 22.1062 47.1283C21.8074 46.7004 21.658 46.1718 21.658 45.5425C21.658 44.2387 22.3134 43.4156 23.6242 43.0733C24.0486 42.9625 24.4868 42.9072 24.9388 42.9072C25.3933 42.9072 25.7788 42.9323 26.0952 42.9827C26.4141 43.033 26.7217 43.1224 27.018 43.2507C27.3169 43.3766 27.5705 43.5377 27.7789 43.734C27.9899 43.9278 28.1581 44.1795 28.2837 44.4891C28.4092 44.7962 28.472 45.1473 28.472 45.5425C28.472 46.348 28.246 46.9722 27.794 47.4152C27.342 47.8557 26.7067 48.1263 25.888 48.227C25.878 48.2446 25.873 48.2723 25.873 48.31L25.8918 48.5177C25.8918 48.646 25.8566 48.7102 25.7863 48.7102C25.716 48.7102 25.6809 48.6486 25.6809 48.5252L25.6922 48.3138C25.6922 48.2383 25.6382 48.2005 25.5302 48.2005C25.5201 48.2232 25.5151 48.266 25.5151 48.3289L25.5339 48.6951C25.5339 48.7706 25.5201 48.8436 25.4925 48.9141C25.4649 48.9846 25.4184 49.0198 25.3531 49.0198C25.2376 49.0198 25.1799 48.9166 25.1799 48.7102ZM23.756 45.5463C23.756 46.4675 24.193 46.9282 25.0669 46.9282C25.9408 46.9282 26.3777 46.4675 26.3777 45.5463C26.3777 45.1234 26.2647 44.8 26.0387 44.576C25.8127 44.352 25.4887 44.2399 25.0669 44.2399C24.645 44.2399 24.3211 44.352 24.0951 44.576C23.869 44.8 23.756 45.1234 23.756 45.5463Z" fill="white"/>
<path d="M32.3947 46.9282C32.2993 46.8526 32.2516 46.7646 32.2516 46.6639V46.6337C32.2516 46.533 32.2968 46.4373 32.3872 46.3467L32.3344 46.2976C32.244 46.3883 32.1499 46.4336 32.0519 46.4336H31.6865C31.5334 46.4336 31.4078 46.4826 31.3099 46.5808L31.2308 46.5015C31.3312 46.4008 31.3814 46.2762 31.3814 46.1277V45.569C31.3814 45.4179 31.3312 45.2921 31.2308 45.1914L31.3099 45.1159C31.4053 45.2115 31.5309 45.2594 31.6865 45.2594H33.9993C34.155 45.2594 34.2806 45.2115 34.376 45.1159L34.4476 45.1914C34.3521 45.287 34.3044 45.4129 34.3044 45.569V47.1509C34.3044 47.229 34.3145 47.2919 34.3346 47.3397C34.3572 47.385 34.4011 47.4253 34.4664 47.4605L34.4061 47.57C34.3609 47.5474 34.3095 47.536 34.2517 47.536C34.1964 47.536 34.1324 47.5599 34.0596 47.6078C33.477 47.9979 32.6483 48.2169 31.5735 48.2647V48.6272L31.6338 49.0463C31.6338 49.1067 31.6213 49.1532 31.5961 49.186C31.571 49.2187 31.5422 49.235 31.5095 49.235C31.4794 49.235 31.4517 49.2199 31.4266 49.1897C31.4015 49.1595 31.389 49.1293 31.389 49.0991C31.389 49.0714 31.394 49.0324 31.404 48.9821C31.4342 48.826 31.4492 48.6674 31.4492 48.5064C31.4492 48.3453 31.4379 48.2647 31.4153 48.2647C30.9231 48.2647 30.4058 48.2307 29.8634 48.1628C29.8408 48.1552 29.8295 48.2899 29.8295 48.5668C29.8295 48.8436 29.8521 49.1293 29.8973 49.4238C29.9451 49.7183 29.9689 49.9235 29.9689 50.0392C29.9689 50.2733 29.8973 50.3904 29.7542 50.3904C29.6864 50.3904 29.6274 50.3639 29.5772 50.3111C29.5295 50.2582 29.5056 50.1726 29.5056 50.0543C29.5056 49.9386 29.547 49.7296 29.6299 49.4276C29.7128 49.1281 29.7542 48.894 29.7542 48.7253V48.1363C28.3203 47.8142 27.6034 46.947 27.6034 45.535C27.6034 44.4602 28.0454 43.7088 28.9293 43.2809C29.4391 43.0318 30.0618 42.9072 30.7976 42.9072C31.9854 42.9072 32.8969 43.14 33.5322 43.6056C33.8763 43.8574 34.096 44.1443 34.1914 44.4665C34.2366 44.6175 34.317 44.7333 34.4325 44.8138L34.376 44.8893C34.273 44.8138 34.1374 44.7761 33.9692 44.7761L32.3796 44.8289C32.2214 44.839 32.1147 44.8994 32.0595 45.0102L31.9351 44.9498C31.9552 44.907 31.9653 44.8579 31.9653 44.8025C31.9653 44.7471 31.9226 44.6628 31.8372 44.5495C31.7518 44.4338 31.6338 44.3469 31.4831 44.289C31.335 44.2286 31.1379 44.1984 30.8918 44.1984C30.6482 44.1984 30.4498 44.2337 30.2966 44.3041C30.1434 44.3746 30.0216 44.4715 29.9312 44.5949C29.7555 44.844 29.6676 45.1738 29.6676 45.5841C29.6676 45.9943 29.7982 46.3329 30.0593 46.5997C30.323 46.864 30.667 46.9961 31.0914 46.9961C31.5158 46.9961 31.8385 46.9684 32.0595 46.9131C32.0996 46.903 32.1386 46.898 32.1762 46.898C32.2139 46.898 32.2716 46.9282 32.3495 46.9886L32.3947 46.9282Z" fill="white"/>
<path d="M17.3376 53.29V53.6441H16.2779V54.2599H17.2924V54.614H16.2779V55.2802H17.361V55.6342H15.8259V53.29H17.3376Z" fill="#C871FF"/>
<path d="M19.2099 53.29L20.5994 54.9261V53.29H21.0414V55.6342H20.653L19.2551 53.9713V55.6342H18.8131V53.29H19.2099Z" fill="#C871FF"/>
<path d="M24.0956 53.29V53.6441H23.0359V54.2599H24.0504V54.614H23.0359V55.2802H24.1191V55.6342H22.5839V53.29H24.0956Z" fill="#C871FF"/>
<path d="M26.4133 53.29C26.6331 53.29 26.8123 53.351 26.9506 53.4729C27.089 53.5949 27.1582 53.7537 27.1582 53.9495C27.1582 54.0826 27.1236 54.199 27.0544 54.2985C26.9864 54.397 26.8848 54.4747 26.7498 54.5318C26.8245 54.572 26.8909 54.6269 26.949 54.6962C27.007 54.7656 27.079 54.8825 27.1649 55.0469C27.3078 55.3311 27.4138 55.5268 27.483 55.6342H26.9791C26.9445 55.5828 26.8976 55.5006 26.8385 55.3876C26.709 55.1381 26.6142 54.9703 26.5539 54.8842C26.4936 54.7969 26.4356 54.7354 26.3798 54.6996C26.324 54.6627 26.2598 54.6442 26.1873 54.6442H26.0232V55.6342H25.5712V53.29H26.4133ZM26.3111 54.2901C26.4294 54.2901 26.5221 54.2605 26.589 54.2012C26.6571 54.1419 26.6912 54.0608 26.6912 53.9579C26.6912 53.8505 26.6577 53.7705 26.5907 53.7179C26.5238 53.6642 26.4283 53.6374 26.3044 53.6374H26.0232V54.2901H26.3111Z" fill="#C871FF"/>
<path d="M29.9329 53.2598C30.2208 53.2598 30.5066 53.3241 30.79 53.4528V53.8673C30.5066 53.723 30.2275 53.6508 29.953 53.6508C29.7822 53.6508 29.6304 53.6849 29.4976 53.7532C29.3648 53.8214 29.2616 53.9198 29.1879 54.0485C29.1154 54.176 29.0791 54.3187 29.0791 54.4764C29.0791 54.7158 29.1584 54.9088 29.3168 55.0553C29.4764 55.2007 29.6863 55.2735 29.9463 55.2735C30.0177 55.2735 30.0858 55.2673 30.1505 55.255C30.2164 55.2427 30.2945 55.2192 30.3849 55.1845V54.7952H29.9982V54.4412H30.8369V55.4077C30.722 55.4883 30.5836 55.5515 30.4217 55.5973C30.261 55.6421 30.0936 55.6644 29.9195 55.6644C29.6729 55.6644 29.4491 55.6135 29.2482 55.5117C29.0484 55.4099 28.8922 55.2673 28.7794 55.0838C28.6678 54.9004 28.612 54.6957 28.612 54.4697C28.612 54.2403 28.6684 54.0328 28.7811 53.8471C28.895 53.6614 29.0529 53.5171 29.2549 53.4142C29.458 53.3113 29.684 53.2598 29.9329 53.2598Z" fill="#C871FF"/>
<path d="M32.5837 53.29L33.1495 54.0737L33.7221 53.29H34.2595L33.3755 54.473V55.6342H32.9235V54.4697L32.0346 53.29H32.5837Z" fill="#C871FF"/>
</g>
<defs>
<filter id="filter0_d_877_677" x="0" y="0" width="50" height="81" filterUnits="userSpaceOnUse" color-interpolation-filters="sRGB">
<feFlood flood-opacity="0" result="BackgroundImageFix"/>
<feColorMatrix in="SourceAlpha" type="matrix" values="0 0 0 0 0 0 0 0 0 0 0 0 0 0 0 0 0 0 127 0" result="hardAlpha"/>
<feOffset dy="4"/>
<feGaussianBlur stdDeviation="5"/>
<feComposite in2="hardAlpha" operator="out"/>
<feColorMatrix type="matrix" values="0 0 0 0 0 0 0 0 0 0 0 0 0 0 0 0 0 0 0.25 0"/>
<feBlend mode="normal" in2="BackgroundImageFix" result="effect1_dropShadow_877_677"/>
<feBlend mode="normal" in="SourceGraphic" in2="effect1_dropShadow_877_677" result="shape"/>
</filter>
</defs>
</svg>
