<svg width="62" height="62" viewBox="0 0 62 62" fill="none" xmlns="http://www.w3.org/2000/svg">
<rect x="26.001" width="2" height="46" transform="rotate(13.8365 26.001 0)" fill="#FFE2B8"/>
<rect x="30.856" y="1.1958" width="2" height="46" transform="rotate(13.8365 30.856 1.1958)" fill="#FFE2B8"/>
<path d="M0.0943124 14.0865C0.0435993 13.5023 0.504155 13 1.09057 13H33.9094C34.4958 13 34.9564 13.5023 34.9057 14.0865L31.4335 54.0865C31.3886 54.6033 30.956 55 30.4372 55H4.56279C4.04402 55 3.6114 54.6033 3.56653 54.0865L0.0943124 14.0865Z" fill="#F9C66A"/>
<path fill-rule="evenodd" clip-rule="evenodd" d="M2.60414 43L0.954834 24H11.3644C13.265 22.7363 15.5465 22 18 22C20.4534 22 22.7349 22.7363 24.6356 24H34.0451L32.3958 43H25.9375C23.8221 44.8672 21.0433 46 18 46C14.9566 46 12.1779 44.8672 10.0625 43H2.60414Z" fill="#FF4C24"/>
<path fill-rule="evenodd" clip-rule="evenodd" d="M1.09053 13C0.504118 13 0.0435622 13.5023 0.0942752 14.0865L0.347185 17H34.6527L34.9057 14.0865C34.9564 13.5023 34.4958 13 33.9094 13H1.09053ZM31.7882 50H3.21177L3.5665 54.0865C3.61136 54.6033 4.04399 55 4.56275 55H30.4372C30.9559 55 31.3886 54.6033 31.4334 54.0865L31.7882 50Z" fill="white"/>
<path d="M35.3069 28.4558C37.2783 25.4205 41.7217 25.4205 43.6931 28.4558L53.969 44.2765C56.1295 47.6028 53.7423 52 49.7759 52H29.2241C25.2577 52 22.8705 47.6028 25.031 44.2765L35.3069 28.4558Z" fill="white"/>
<rect x="32" y="39" width="15" height="13" fill="#292828"/>
<rect x="19" y="52" width="41" height="3" rx="1.5" fill="#8D6250"/>
</svg>
