<svg width="48" height="47" viewBox="0 0 48 47" fill="none" xmlns="http://www.w3.org/2000/svg">
<rect y="43" width="48" height="4" rx="1" fill="white"/>
<rect x="5" y="35.125" width="37" height="7.875" fill="#634E4E"/>
<rect x="5" y="21.625" width="37" height="7.875" fill="#785656"/>
<rect x="5" y="29.5" width="37" height="5.625" fill="#523939"/>
<path d="M5 18C5 16.8954 5.89543 16 7 16H40C41.1046 16 42 16.8954 42 18V21.625H5V18Z" fill="#523939"/>
<path d="M36.3939 16H40C41.1046 16 42 16.8954 42 18V43H36.3939V16Z" fill="#523939"/>
<circle cx="24" cy="11" r="5" fill="#FF3E3E"/>
<rect x="14.875" y="13.125" width="18" height="5.625" rx="2" fill="#523939"/>
<path d="M24.0001 8C23.6667 6.16667 24.0001 2.2 28.0001 1" stroke="#492D21"/>
</svg>
