<svg width="56" height="65" viewBox="0 0 56 65" fill="none" xmlns="http://www.w3.org/2000/svg">
<rect x="6" y="7" width="44" height="58" fill="white"/>
<g style="mix-blend-mode:lighten">
<rect x="43" y="5.88623" width="6" height="13" transform="rotate(-40.3716 43 5.88623)" fill="#D9D9D9"/>
</g>
<g style="mix-blend-mode:lighten">
<rect x="4.39258" y="13.6045" width="6" height="13" transform="rotate(-137.063 4.39258 13.6045)" fill="#D9D9D9"/>
</g>
<path d="M31.0199 16.0234H28.5199V27.7617H31.0199V22.5273H33.4223V20.457H31.0199V16.0234ZM17.0355 21.5117C17.0258 24.0605 19.1352 25.8574 21.9184 25.8477C24.6723 25.8574 26.7621 24.0605 26.7621 21.5117C26.7621 18.9434 24.6723 17.1562 21.9184 17.1562C19.1352 17.1562 17.0258 18.9434 17.0355 21.5117ZM18.4613 31.7656L19.4184 33.7188C22.2211 33.2988 24.2523 32.0879 25.3363 30.418C26.4105 32.0879 28.4418 33.2988 31.2348 33.7188L32.2113 31.7656C28.4125 31.2676 26.5473 29.3438 26.5473 27.3711V26.9219H24.0863V27.3711C24.0766 29.3438 22.2211 31.2676 18.4613 31.7656ZM19.4965 21.5117C19.477 20.0957 20.5219 19.2559 21.9184 19.2656C23.2855 19.2559 24.3305 20.0957 24.3402 21.5117C24.3305 22.8887 23.2855 23.748 21.9184 23.7383C20.5219 23.748 19.477 22.8887 19.4965 21.5117ZM38.0465 17.8594H35.0387L35.2926 27.7617H37.7926L38.0465 17.8594ZM34.9215 30.5352C34.902 31.4434 35.6441 32.1758 36.5621 32.1758C37.4312 32.1758 38.1832 31.4434 38.1832 30.5352C38.1832 29.6367 37.4312 28.9043 36.5621 28.9141C35.6441 28.9043 34.902 29.6367 34.9215 30.5352Z" fill="black"/>
<path d="M26.1425 41.8594H16.2675V43.4531H24.1581C24.1425 44.4531 24.1034 45.5547 23.7987 46.9688H14.6737V48.5781H27.6894V46.9688H25.8066C26.1503 45.3359 26.1503 44.1094 26.1425 43V41.8594ZM16.2206 55.2812H26.0956V50.0781H16.2206V55.2812ZM18.1737 53.6875V51.6406H24.1112V53.6875H18.1737ZM33.8575 45.0938V44.2188H36.8263V42.5938H28.795V44.2188H31.8106V45.0938C31.8106 47.5 30.5919 50.1328 28.2325 51.1875L29.3731 52.7656C31.0528 51.9922 32.2325 50.4297 32.8731 48.5625C33.5138 50.2812 34.67 51.6953 36.3419 52.4062L37.42 50.8438C35.0372 49.8516 33.8497 47.3906 33.8575 45.0938ZM38.2325 55.4375H40.2481V41.2188H38.2325V55.4375Z" fill="#FF646C"/>
</svg>
