<svg width="37" height="88" viewBox="0 0 37 88" fill="none" xmlns="http://www.w3.org/2000/svg">
<rect x="8.77991" y="20.7324" width="2" height="20" transform="rotate(-12.4837 8.77991 20.7324)" fill="#A0D58E"/>
<path fill-rule="evenodd" clip-rule="evenodd" d="M11.3884 14.0098C11.4556 14.3132 11.4742 14.6161 11.4495 14.9103C11.8615 14.2548 12.5255 13.758 13.3411 13.5775C14.9588 13.2193 16.5605 14.2404 16.9187 15.8581C17.2768 17.4757 16.2558 19.0775 14.6381 19.4356C16.2558 19.0775 17.8575 20.0985 18.2157 21.7162C18.5738 23.3339 17.5528 24.9356 15.9351 25.2938C15.1194 25.4743 14.3078 25.3043 13.6577 24.8839C13.8043 25.1402 13.9152 25.4227 13.9824 25.7261C14.3405 27.3438 13.3195 28.9455 11.7018 29.3036C10.0841 29.6618 8.48236 28.6407 8.12421 27.0231C8.05704 26.7196 8.03838 26.4168 8.06309 26.1226C7.65111 26.7781 6.98714 27.2748 6.1715 27.4554C4.55382 27.8135 2.95209 26.7925 2.59394 25.1748C2.23579 23.5571 3.25685 21.9554 4.87453 21.5972C3.25685 21.9554 1.65512 20.9343 1.29697 19.3166C0.938822 17.699 1.95988 16.0972 3.57756 15.7391C4.3932 15.5585 5.20479 15.7285 5.85496 16.1489C5.70838 15.8926 5.59745 15.6102 5.53027 15.3068C5.17212 13.6891 6.19318 12.0874 7.81086 11.7292C9.42854 11.3711 11.0303 12.3921 11.3884 14.0098Z" fill="#FFCBCB"/>
<circle cx="9.75627" cy="20.5164" r="3" transform="rotate(-12.4837 9.75627 20.5164)" fill="#FF646C"/>
<rect x="26.5074" y="10.1191" width="2" height="30.7135" transform="rotate(10.4377 26.5074 10.1191)" fill="#A0D58E"/>
<path fill-rule="evenodd" clip-rule="evenodd" d="M31.5283 4.94319C31.472 5.24882 31.3712 5.53504 31.2338 5.79639C31.8686 5.35309 32.6736 5.15418 33.4952 5.30552C35.1246 5.60569 36.2022 7.16994 35.902 8.79938C35.6019 10.4288 34.0376 11.5064 32.4082 11.2062C34.0376 11.5064 35.1152 13.0707 34.815 14.7001C34.5149 16.3295 32.9506 17.4071 31.3212 17.107C30.4996 16.9556 29.8183 16.4829 29.3832 15.8425C29.4184 16.1357 29.4106 16.439 29.3543 16.7446C29.0541 18.3741 27.4898 19.4516 25.8604 19.1515C24.231 18.8513 23.1534 17.2871 23.4535 15.6576C23.5098 15.352 23.6106 15.0658 23.748 14.8044C23.1132 15.2477 22.3082 15.4466 21.4866 15.2953C19.8572 14.9951 18.7796 13.4309 19.0798 11.8014C19.38 10.172 20.9442 9.09441 22.5736 9.39457C20.9442 9.09441 19.8666 7.53015 20.1668 5.90071C20.467 4.27128 22.0312 3.19369 23.6606 3.49386C24.4822 3.6452 25.1635 4.11791 25.5986 4.7583C25.5634 4.46516 25.5712 4.16182 25.6275 3.85619C25.9277 2.22675 27.492 1.14917 29.1214 1.44933C30.7508 1.7495 31.8284 3.31375 31.5283 4.94319Z" fill="#FFCBCB"/>
<circle cx="27.491" cy="10.3005" r="3" transform="rotate(10.4377 27.491 10.3005)" fill="#FF646C"/>
<path fill-rule="evenodd" clip-rule="evenodd" d="M31 38H7V67C7 71.795 9.81233 75.9331 13.8775 77.8548C12.1189 79.3223 11 81.5305 11 84L11 88H27V84C27 81.5305 25.8811 79.3223 24.1225 77.8548C28.1877 75.9331 31 71.795 31 67V38Z" fill="#FFE297"/>
</svg>
