<svg width="45" height="71" viewBox="0 0 45 71" fill="none" xmlns="http://www.w3.org/2000/svg">
<path d="M13 12.5C13 6.70101 17.701 2 23.5 2C29.299 2 34 6.70101 34 12.5V51H13V12.5Z" fill="url(#paint0_linear_1298_149)"/>
<path d="M37 16C37 13.7909 38.7909 12 41 12C43.2091 12 45 13.7909 45 16V20H37V16Z" fill="url(#paint1_linear_1298_149)"/>
<path d="M10 20C10 17.7909 8.20914 16 6 16C3.79086 16 2 17.7909 2 20V24H10V20Z" fill="url(#paint2_linear_1298_149)"/>
<path d="M33 20H45V23C45 26.3137 42.3137 29 39 29H33V20Z" fill="url(#paint3_linear_1298_149)"/>
<path d="M14 24H2V27C2 30.3137 4.68629 33 8 33H14V24Z" fill="url(#paint4_linear_1298_149)"/>
<mask id="mask0_1298_149" style="mask-type:alpha" maskUnits="userSpaceOnUse" x="2" y="2" width="43" height="49">
<path fill-rule="evenodd" clip-rule="evenodd" d="M13 12.5C13 6.70101 17.701 2 23.5 2C29.299 2 34 6.70101 34 12.5V20H37V16C37 13.7909 38.7909 12 41 12C43.2091 12 45 13.7909 45 16V20V23C45 26.3137 42.3137 29 39 29H34V51H13V33H8C4.68629 33 2 30.3137 2 27V24V20C2 17.7909 3.79086 16 6 16C8.20914 16 10 17.7909 10 20V24H13V12.5Z" fill="#A0D58E"/>
</mask>
<g mask="url(#mask0_1298_149)">
</g>
<mask id="mask1_1298_149" style="mask-type:alpha" maskUnits="userSpaceOnUse" x="2" y="2" width="43" height="49">
<path fill-rule="evenodd" clip-rule="evenodd" d="M13 12.5C13 6.70101 17.701 2 23.5 2C29.299 2 34 6.70101 34 12.5V20H37V16C37 13.7909 38.7909 12 41 12C43.2091 12 45 13.7909 45 16V20V23C45 26.3137 42.3137 29 39 29H34V51H13V33H8C4.68629 33 2 30.3137 2 27V24V20C2 17.7909 3.79086 16 6 16C8.20914 16 10 17.7909 10 20V24H13V12.5Z" fill="#A0D58E"/>
</mask>
<g mask="url(#mask1_1298_149)">
<line x1="17.5" y1="2" x2="17.5" y2="41" stroke="#90BE80"/>
<line x1="23.5" y1="2" x2="23.5" y2="41" stroke="#90BE80"/>
<line x1="29.5" y1="2" x2="29.5" y2="41" stroke="#90BE80"/>
</g>
<path d="M5.30191 43.2643C5.14205 42.0654 6.07479 41 7.28437 41H39.7156C40.9252 41 41.858 42.0654 41.6981 43.2643L38.2314 69.2643C38.0989 70.2579 37.2514 71 36.249 71H10.751C9.74863 71 8.90106 70.2579 8.76858 69.2643L5.30191 43.2643Z" fill="#DE9B50"/>
<line x1="0.353553" y1="17.6464" x2="2.35355" y2="19.6464" stroke="#70A25F"/>
<line x1="41.2316" y1="10.1325" x2="40.4822" y2="12.8598" stroke="#70A25F"/>
<line x1="24.2316" y1="0.132483" x2="23.4822" y2="2.85982" stroke="#70A25F"/>
<line x1="2.94021" y1="15.5012" x2="3.98871" y2="18.1281" stroke="#70A25F"/>
<line x1="44.3752" y1="11.3198" x2="42.6104" y2="13.5301" stroke="#70A25F"/>
<line x1="28.1702" y1="1.31297" x2="26.3899" y2="3.53107" stroke="#70A25F"/>
<defs>
<linearGradient id="paint0_linear_1298_149" x1="23.5" y1="2" x2="23.5" y2="51" gradientUnits="userSpaceOnUse">
<stop stop-color="#D0D89E"/>
<stop offset="1" stop-color="#A0D58E"/>
</linearGradient>
<linearGradient id="paint1_linear_1298_149" x1="41" y1="12" x2="41" y2="20" gradientUnits="userSpaceOnUse">
<stop stop-color="#D0D89E"/>
<stop offset="1" stop-color="#A0D58E"/>
</linearGradient>
<linearGradient id="paint2_linear_1298_149" x1="6" y1="16" x2="6" y2="24" gradientUnits="userSpaceOnUse">
<stop stop-color="#D0D89E"/>
<stop offset="1" stop-color="#A0D58E"/>
</linearGradient>
<linearGradient id="paint3_linear_1298_149" x1="39" y1="20" x2="39" y2="29" gradientUnits="userSpaceOnUse">
<stop stop-color="#D0D89E"/>
<stop offset="1" stop-color="#A0D58E"/>
</linearGradient>
<linearGradient id="paint4_linear_1298_149" x1="8" y1="24" x2="8" y2="33" gradientUnits="userSpaceOnUse">
<stop stop-color="#D0D89E"/>
<stop offset="1" stop-color="#A0D58E"/>
</linearGradient>
</defs>
</svg>
