<svg width="94" height="129" viewBox="0 0 94 129" fill="none" xmlns="http://www.w3.org/2000/svg">
<path fill-rule="evenodd" clip-rule="evenodd" d="M27.143 68.375C24.7596 68.375 22.7075 70.0573 22.2401 72.3944L19.2401 87.3944C19.1263 87.9633 19.1134 88.5252 19.1879 89.0634C15.2959 95.2333 13.0439 102.541 13.0439 110.375V114.329C13.0439 119.248 13.932 123.96 15.5566 128.313H90.5313C92.1559 123.96 93.0439 119.248 93.0439 114.329V110.375C93.0439 100.231 89.2676 90.9681 83.0439 83.9168V73.375C83.0439 70.6136 80.8054 68.375 78.0439 68.375H27.143Z" fill="#EFEFEF"/>
<ellipse cx="50.5439" cy="109.875" rx="11.5" ry="9.5" fill="url(#paint0_linear_1115_691)"/>
<ellipse cx="11.5439" cy="109.875" rx="11.5" ry="9.5" fill="url(#paint1_linear_1115_691)"/>
<path d="M8.02597 37.8886C6.39399 42.0245 11.7164 45.3374 14.7069 42.0471L37.8269 16.609C40.6834 13.4662 38.5685 8.41829 34.3249 8.25004L23.4924 7.82057C21.3685 7.73637 19.4235 9.00419 18.6433 10.9814L8.02597 37.8886Z" fill="#1E1E1E"/>
<ellipse cx="49.0618" cy="40.6543" rx="31.9319" ry="33.8064" transform="rotate(10.9824 49.0618 40.6543)" fill="#3D3C3C"/>
<circle cx="43.0439" cy="35.3745" r="2.5" fill="black" stroke="black"/>
<circle cx="27.7776" cy="35.4087" r="2.5" fill="black" stroke="black"/>
<path d="M33.536 37.6667L24.0439 45.8745L38.5439 48.3745L36.812 38.8227C36.5358 37.2991 34.7073 36.6539 33.536 37.6667Z" fill="#E4B488"/>
<path d="M10.0439 55.375C10.0439 48.1953 15.8642 42.375 23.0439 42.375H32.0439C39.2236 42.375 45.0439 48.1953 45.0439 55.375V55.375C45.0439 62.5547 39.2236 68.375 32.0439 68.375H27.5439H23.0439C15.8642 68.375 10.0439 62.5547 10.0439 55.375V55.375Z" fill="#E4B488"/>
<path d="M12.0439 48.3745C12.0439 45.0608 14.7302 42.3745 18.0439 42.3745H22.0439C25.3577 42.3745 28.0439 45.0608 28.0439 48.3745V48.3745C28.0439 51.6882 25.3577 54.3745 22.0439 54.3745H18.0439C14.7302 54.3745 12.0439 51.6882 12.0439 48.3745V48.3745Z" fill="#1E1E1E"/>
<path d="M87.4637 52.0421C87.2216 57.2228 80.2247 58.6542 77.9675 53.9847L58.6413 14.0051C56.6007 9.78378 60.9699 5.32815 65.2304 7.28564L85.9794 16.8187C87.8315 17.6697 88.9817 19.5596 88.8865 21.5956L87.4637 52.0421Z" fill="#1E1E1E"/>
<ellipse cx="44.044" cy="27.8745" rx="5" ry="2.5" transform="rotate(-0.390985 44.044 27.8745)" fill="#E4B488"/>
<ellipse cx="27.4277" cy="27.9042" rx="4.36675" ry="2.5" transform="rotate(-0.390985 27.4277 27.9042)" fill="#E4B488"/>
<path d="M73.0439 67.3748C58.5431 67.0212 38.5435 73.6778 29.8431 79.6023C28.5429 80.4877 29.0442 82.3036 30.5823 82.6332L54.3409 87.7242C54.7954 87.8215 55.2632 87.7614 55.6747 87.5454C68.5665 80.7761 89.1781 67.7684 73.0439 67.3748Z" fill="#EFEFEF"/>
<defs>
<linearGradient id="paint0_linear_1115_691" x1="50.5439" y1="100.375" x2="50.5439" y2="119.375" gradientUnits="userSpaceOnUse">
<stop/>
<stop offset="0.244792" stop-color="#E4B488"/>
<stop offset="1" stop-color="#E4B488"/>
</linearGradient>
<linearGradient id="paint1_linear_1115_691" x1="11.5439" y1="100.375" x2="11.5439" y2="119.375" gradientUnits="userSpaceOnUse">
<stop/>
<stop offset="0.244792" stop-color="#E4B488"/>
<stop offset="1" stop-color="#E4B488"/>
</linearGradient>
</defs>
</svg>
