<svg width="116" height="143" viewBox="0 0 116 143" fill="none" xmlns="http://www.w3.org/2000/svg">
<path d="M59.5 88C37.6848 88 20 105 20 125.971V129.725C20 134.395 20.877 138.868 22.4813 143H96.5188C98.123 138.868 99 134.395 99 129.725V125.971C99 105 81.3152 88 59.5 88Z" fill="#444B18"/>
<ellipse cx="60.498" cy="120.984" rx="14.5" ry="13" fill="url(#paint0_linear_1328_62)"/>
<ellipse cx="14.5" cy="120.984" rx="14.5" ry="13" fill="url(#paint1_linear_1328_62)"/>
<path fill-rule="evenodd" clip-rule="evenodd" d="M42 80C39.2386 80 37 82.2386 37 85V92C37 92.2008 37.0118 92.3988 37.0348 92.5934C37.0117 92.7279 37 92.8635 37 93C37 94.0034 37.6334 94.9575 38.7741 95.8203C39.0746 96.0743 39.4054 96.2934 39.7603 96.4715C43.379 98.5795 50.1918 100 58 100C65.8082 100 72.621 98.5795 76.2397 96.4715C76.5946 96.2934 76.9255 96.0743 77.2259 95.8203C78.3666 94.9575 79 94.0034 79 93C79 92.8635 78.9883 92.7279 78.9652 92.5934C78.9882 92.3988 79 92.2008 79 92V85C79 82.2386 76.7614 80 74 80H42Z" fill="white"/>
<path d="M24.2664 39.8084C28.9513 34.2059 36.9633 32.7719 43.262 36.4084C49.3775 39.9392 52.185 47.2805 49.9993 54.0255L46.8304 63.8045C43.658 73.5943 32.2964 77.9935 23.4203 72.8688L21.9457 72.0175C13.2828 67.0159 11.2494 55.3749 17.6928 47.6696L24.2664 39.8084Z" fill="url(#paint2_linear_1328_62)"/>
<rect x="24.9014" y="31" width="66" height="64" rx="28" fill="white"/>
<mask id="mask0_1328_62" style="mask-type:alpha" maskUnits="userSpaceOnUse" x="24" y="31" width="67" height="64">
<rect x="24.9014" y="31" width="66" height="64" rx="28" fill="white"/>
</mask>
<g mask="url(#mask0_1328_62)">
<rect x="51.6685" y="34.4331" width="37.0202" height="39.5564" rx="18.5101" transform="rotate(-0.670166 51.6685 34.4331)" fill="#C28747"/>
</g>
<path d="M77.7979 53.4432C75.0478 46.7109 76.9018 39.5159 82.1935 36.3845C87.3313 33.3442 94.2938 34.9804 98.9018 40.311L105.582 48.0393C112.27 55.7763 111.545 67.2332 104.088 71.6459L102.849 72.3791C95.5713 76.6858 85.4389 72.1488 81.6566 62.8896L77.7979 53.4432Z" fill="url(#paint3_linear_1328_62)"/>
<path d="M20 75.5C20 66.3873 27.3873 59 36.5 59H48.5C57.6127 59 65 66.3873 65 75.5V75.5C65 84.6127 57.6127 92 48.5 92H42.5H36.5C27.3873 92 20 84.6127 20 75.5V75.5Z" fill="white"/>
<path d="M38.5624 72.0458C37.7617 73.0474 36.2387 73.0474 35.438 72.0458L31.8031 67.4988C30.7562 66.1892 31.6886 64.25 33.3653 64.25L40.6351 64.25C42.3118 64.25 43.2442 66.1892 42.1973 67.4988L38.5624 72.0458Z" fill="#353230"/>
<circle cx="58.8994" cy="54.9839" r="3" fill="#353230"/>
<circle cx="41.9014" cy="54.9839" r="3" fill="#353230"/>
<path d="M43.5651 27.8272C43.5895 26.9412 44.669 26.5225 45.2844 27.1603L48.7992 30.8027C49.2955 31.317 49.1076 32.1709 48.4412 32.4294L44.7872 33.8468C44.1208 34.1053 43.4063 33.6015 43.4259 32.887L43.5651 27.8272Z" fill="white"/>
<path d="M40.5651 30.8272C40.5895 29.9412 41.669 29.5225 42.2844 30.1603L45.7992 33.8027C46.2955 34.317 46.1076 35.1709 45.4412 35.4294L41.7872 36.8468C41.1208 37.1053 40.4063 36.6015 40.4259 35.887L40.5651 30.8272Z" fill="white"/>
<defs>
<linearGradient id="paint0_linear_1328_62" x1="60.498" y1="107.984" x2="60.498" y2="133.984" gradientUnits="userSpaceOnUse">
<stop offset="0.734375" stop-color="white"/>
<stop offset="1" stop-color="#C98C4A"/>
</linearGradient>
<linearGradient id="paint1_linear_1328_62" x1="14.5" y1="107.984" x2="14.5" y2="133.984" gradientUnits="userSpaceOnUse">
<stop offset="0.734375" stop-color="white"/>
<stop offset="1" stop-color="#C98C4A"/>
</linearGradient>
<linearGradient id="paint2_linear_1328_62" x1="43.432" y1="36.5066" x2="22.6837" y2="72.4436" gradientUnits="userSpaceOnUse">
<stop stop-color="#C98C4A"/>
<stop offset="1" stop-color="#613C13"/>
</linearGradient>
<linearGradient id="paint3_linear_1328_62" x1="82.3363" y1="36.3" x2="103.469" y2="72.0121" gradientUnits="userSpaceOnUse">
<stop stop-color="#C98C4A"/>
<stop offset="1" stop-color="#613C13"/>
</linearGradient>
</defs>
</svg>
