<svg width="188" height="172" viewBox="0 0 188 172" fill="none" xmlns="http://www.w3.org/2000/svg">
<path fill-rule="evenodd" clip-rule="evenodd" d="M114 86C111.239 86 109 88.2386 109 91V106C109 106.686 109.138 107.34 109.389 107.936C105.962 113.834 104 120.688 104 128V131.954C104 136.873 104.888 141.585 106.513 145.938H181.487C183.112 141.585 184 136.873 184 131.954V128C184 117.856 180.224 108.593 174 101.542V91C174 88.2386 171.761 86 169 86H114ZM144 171.954L143.907 171.954H144.093L144 171.954Z" fill="#4D4C4C"/>
<ellipse cx="139.5" cy="63.5" rx="39.5" ry="38.5" fill="white"/>
<path d="M94 80C94 67.8497 103.85 58 116 58H129C141.15 58 151 67.8497 151 80V80C151 92.1503 141.15 102 129 102H122.5H116C103.85 102 94 92.1503 94 80V80Z" fill="white"/>
<rect x="105" y="66" width="20" height="13" rx="6.5" fill="#1E1E1E"/>
<path d="M159.484 14.4088C162.085 10.8639 167.666 12.1609 168.438 16.4896L173.58 45.3438C174.21 48.8773 171.022 51.9038 167.526 51.0913L145.044 45.8666C141.548 45.0541 140.021 40.932 142.145 38.0383L159.484 14.4088Z" fill="url(#paint0_linear_1028_52)"/>
<path d="M121.958 15.3425C123.318 11.17 129.01 10.6494 131.105 14.5057L138.915 28.8816C140.63 32.0387 138.554 35.9203 134.976 36.2476L122.095 37.4259C118.517 37.7532 115.772 34.3125 116.886 30.8966L121.958 15.3425Z" fill="white"/>
<ellipse cx="141.5" cy="124" rx="14.5" ry="13" fill="white"/>
<ellipse cx="99" cy="123.5" rx="14" ry="12.5" fill="white"/>
<path d="M4.43242 103.535C2.47173 100.202 4.875 96 8.74208 96H88.1403C89.9121 96 91.5516 96.9377 92.4499 98.4649L116.568 139.465C118.528 142.798 116.125 147 112.258 147H32.8597C31.0879 147 29.4484 146.062 28.5501 144.535L4.43242 103.535Z" fill="#D9D9D9"/>
<rect x="40" y="137" width="116" height="10" rx="5" fill="#D9D9D9"/>
<circle cx="134.5" cy="54.5" r="3.5" fill="#1E1E1E"/>
<circle cx="119.5" cy="54.5" r="3.5" fill="#1E1E1E"/>
<defs>
<linearGradient id="paint0_linear_1028_52" x1="166.39" y1="4.99812" x2="167.975" y2="-5.38849" gradientUnits="userSpaceOnUse">
<stop stop-color="white"/>
<stop offset="1" stop-color="#FFCBCB"/>
</linearGradient>
</defs>
</svg>
