<svg width="100" height="100" viewBox="0 0 100 100" fill="none" xmlns="http://www.w3.org/2000/svg">
<ellipse cx="49.4052" cy="53.0158" rx="29.8681" ry="29.112" fill="white"/>
<path d="M15 65.4923C15 56.3049 22.4479 48.8569 31.6354 48.8569H41.4654C50.6529 48.8569 58.1008 56.3049 58.1008 65.4923V65.4923C58.1008 74.6798 50.6529 82.1278 41.4654 82.1278H36.5504H31.6354C22.4479 82.1278 15 74.6798 15 65.4923V65.4923Z" fill="white"/>
<rect x="23.3179" y="54.9062" width="15.1231" height="9.83002" rx="4.91501" fill="#1E1E1E"/>
<path d="M62.8319 18.19C65.4331 14.6452 71.014 15.9422 71.7854 20.2708L74.8501 37.467C75.4798 41.0005 72.2918 44.0269 68.7958 43.2145L55.3974 40.1007C51.9014 39.2882 50.3747 35.1661 52.4981 32.2724L62.8319 18.19Z" fill="url(#paint0_linear_1356_94)"/>
<path d="M35.262 19.2947C36.6226 15.1223 42.3143 14.6017 44.4092 18.458L48.0781 25.2117C49.7932 28.3688 47.718 32.2504 44.14 32.5777L38.0884 33.1312C34.5105 33.4585 31.7654 30.0178 32.8793 26.6019L35.262 19.2947Z" fill="white"/>
<circle cx="45.6246" cy="46.2105" r="2.64654" fill="#1E1E1E"/>
<circle cx="34.2818" cy="46.2105" r="2.64654" fill="#1E1E1E"/>
<defs>
<linearGradient id="paint0_linear_1356_94" x1="69.7374" y1="8.77935" x2="70.936" y2="0.925466" gradientUnits="userSpaceOnUse">
<stop stop-color="white"/>
<stop offset="1" stop-color="#FFCBCB"/>
</linearGradient>
</defs>
</svg>
