<svg width="69" height="74" viewBox="0 0 69 74" fill="none" xmlns="http://www.w3.org/2000/svg">
<ellipse cx="33.0099" cy="46.0686" rx="28.6569" ry="27.9314" fill="white"/>
<path d="M0 58.0389C0 49.224 7.14589 42.0781 15.9608 42.0781H25.3922C34.2071 42.0781 41.3529 49.224 41.3529 58.0389C41.3529 66.8538 34.2071 73.9997 25.3922 73.9997H20.6765H15.9608C7.14589 73.9997 0 66.8538 0 58.0389Z" fill="white"/>
<rect x="7.98022" y="47.8823" width="14.5098" height="9.43137" rx="4.71569" fill="#1E1E1E"/>
<path d="M45.6123 13.0367C48.2135 9.4919 53.7944 10.7889 54.5659 15.1175L57.3692 30.8477C57.999 34.3812 54.811 37.4076 51.315 36.5951L39.0588 33.7468C35.5628 32.9344 34.0361 28.8122 36.1595 25.9186L45.6123 13.0367Z" fill="url(#paint0_linear_811_771)"/>
<path d="M19.2945 14.1628C20.655 9.99039 26.3467 9.46977 28.4417 13.3261L31.5899 19.1213C33.3049 22.2784 31.2297 26.16 27.6518 26.4872L22.459 26.9622C18.8811 27.2895 16.136 23.8488 17.2499 20.433L19.2945 14.1628Z" fill="white"/>
<circle cx="29.3822" cy="39.5392" r="2.53922" fill="#1E1E1E"/>
<circle cx="17.9511" cy="39.5392" r="2.53922" fill="#1E1E1E"/>
<defs>
<linearGradient id="paint0_linear_811_771" x1="52.5179" y1="3.62609" x2="53.6678" y2="-3.9093" gradientUnits="userSpaceOnUse">
<stop stop-color="white"/>
<stop offset="1" stop-color="#FFCBCB"/>
</linearGradient>
</defs>
</svg>
