<svg width="75" height="67" viewBox="0 0 75 67" fill="none" xmlns="http://www.w3.org/2000/svg">
<path d="M8.02597 27.7968C6.39399 31.9327 11.7164 35.2456 14.7069 31.9553L30.0211 15.1057C32.8776 11.9628 30.7627 6.91491 26.5191 6.74667L20.0355 6.48961C17.9116 6.40541 15.9666 7.67323 15.1864 9.65044L8.02597 27.7968Z" fill="#1E1E1E"/>
<ellipse cx="40.5585" cy="33.6083" rx="26.3976" ry="27.9472" transform="rotate(10.9824 40.5585 33.6083)" fill="#3D3C3C"/>
<circle cx="35.5838" cy="29.2437" r="1.98005" fill="black" stroke="black"/>
<circle cx="22.9632" cy="29.272" r="1.98005" fill="black" stroke="black"/>
<path d="M27.2642 31.5359L19.8767 37.9238L31.8636 39.9906L30.5403 32.6919C30.264 31.1682 28.4355 30.523 27.2642 31.5359Z" fill="#E4B488"/>
<path d="M8.30322 45.7777C8.30322 39.8423 13.1148 35.0308 19.0501 35.0308H26.4903C32.4256 35.0308 37.2372 39.8423 37.2372 45.7777C37.2372 51.713 32.4256 56.5246 26.4903 56.5246H22.7702H19.0501C13.1148 56.5246 8.30322 51.713 8.30322 45.7777Z" fill="#E4B488"/>
<path d="M9.95654 39.9904C9.95654 37.251 12.1773 35.0303 14.9167 35.0303H18.2234C20.9628 35.0303 23.1835 37.251 23.1835 39.9904C23.1835 42.7298 20.9628 44.9505 18.2234 44.9505H14.9167C12.1773 44.9505 9.95654 42.7298 9.95654 39.9904Z" fill="#1E1E1E"/>
<path d="M72.4642 39.6109C72.2221 44.7916 65.2252 46.223 62.968 41.5536L49.5275 13.7495C47.4869 9.52814 51.8561 5.07251 56.1166 7.03L70.5466 13.6599C72.3987 14.5108 73.5489 16.4007 73.4537 18.4367L72.4642 39.6109Z" fill="#1E1E1E"/>
<ellipse cx="36.4106" cy="23.0433" rx="4.13342" ry="2.06671" transform="rotate(-0.390985 36.4106 23.0433)" fill="#E4B488"/>
<ellipse cx="22.674" cy="23.0684" rx="3.60993" ry="2.06671" transform="rotate(-0.390985 22.674 23.0684)" fill="#E4B488"/>
</svg>
