<svg width="100" height="100" viewBox="0 0 100 100" fill="none" xmlns="http://www.w3.org/2000/svg">
<path d="M16.026 45.3642C14.394 49.5 19.7164 52.813 22.7069 49.5227L40.0068 30.4882C42.8633 27.3454 40.7485 22.2975 36.5048 22.1292L28.9149 21.8283C26.791 21.7441 24.846 23.0119 24.0658 24.9891L16.026 45.3642Z" fill="#1E1E1E"/>
<ellipse cx="50.7218" cy="50.4013" rx="27.8055" ry="29.4377" transform="rotate(10.9824 50.7218 50.4013)" fill="#3D3C3C"/>
<circle cx="45.4815" cy="45.8037" r="2.11232" fill="black" stroke="black"/>
<circle cx="32.188" cy="45.8335" r="2.11232" fill="black" stroke="black"/>
<path d="M36.8599 48.0959L28.937 54.9468L41.5632 57.1238L40.1359 49.2519C39.8597 47.7283 38.0312 47.0831 36.8599 48.0959Z" fill="#E4B488"/>
<path d="M16.7461 63.22C16.7461 56.9681 21.8143 51.8999 28.0662 51.8999H35.9031C42.155 51.8999 47.2232 56.9681 47.2232 63.22V63.22C47.2232 69.4719 42.155 74.54 35.9031 74.54H31.9846H28.0662C21.8143 74.54 16.7461 69.4719 16.7461 63.22V63.22Z" fill="#E4B488"/>
<path d="M18.4873 57.1241C18.4873 54.2386 20.8265 51.8994 23.7119 51.8994H27.1951C30.0805 51.8994 32.4197 54.2386 32.4197 57.1241V57.1241C32.4197 60.0096 30.0805 62.3487 27.1951 62.3487H23.7119C20.8265 62.3487 18.4873 60.0096 18.4873 57.1241V57.1241Z" fill="#1E1E1E"/>
<path d="M84.2796 57.7735C84.0375 62.9542 77.0406 64.3856 74.7834 59.7162L59.8457 28.8147C57.8051 24.5934 62.1742 20.1378 66.4348 22.0953L82.4723 29.4637C84.3243 30.3146 85.4745 32.2045 85.3794 34.2405L84.2796 57.7735Z" fill="#1E1E1E"/>
<ellipse cx="46.352" cy="39.2732" rx="4.35387" ry="2.17694" transform="rotate(-0.390985 46.352 39.2732)" fill="#E4B488"/>
<ellipse cx="31.8831" cy="39.2984" rx="3.80245" ry="2.17694" transform="rotate(-0.390985 31.8831 39.2984)" fill="#E4B488"/>
</svg>
