<svg width="100" height="100" viewBox="0 0 100 100" fill="none" xmlns="http://www.w3.org/2000/svg">
<circle cx="66.4936" cy="63.4956" r="8.33251" fill="#8D6250"/>
<path d="M17.4719 32.6895C21.3565 28.0052 28.0275 26.783 33.2883 29.7916V29.7916C38.396 32.7127 40.7604 38.8202 38.9622 44.448L36.3551 52.607C33.7452 60.7752 24.2932 64.4795 16.8797 60.2398L15.6481 59.5354C8.41273 55.3975 6.67872 45.7046 12.0213 39.2622L17.4719 32.6895Z" fill="#7C503E"/>
<ellipse cx="48.9869" cy="49.4424" rx="25.6539" ry="25.0962" fill="#8D6250"/>
<ellipse cx="33.5581" cy="33.2691" rx="8.5513" ry="7.80771" fill="#8D6250"/>
<ellipse cx="29.4683" cy="42.5636" rx="8.5513" ry="7.80771" fill="#8D6250"/>
<ellipse cx="27.6089" cy="52.9742" rx="8.5513" ry="7.80771" fill="#8D6250"/>
<ellipse cx="27.4234" cy="61.8971" rx="8.5513" ry="7.80771" fill="#8D6250"/>
<ellipse cx="45.0835" cy="28.8077" rx="8.5513" ry="7.80771" fill="#8D6250"/>
<ellipse cx="55.6797" cy="28.8077" rx="8.5513" ry="7.80771" fill="#8D6250"/>
<ellipse cx="65.3462" cy="34.7564" rx="8.5513" ry="7.80771" fill="#8D6250"/>
<ellipse cx="35.6026" cy="70.8199" rx="8.5513" ry="7.80771" fill="#8D6250"/>
<ellipse cx="45.2696" cy="71.1925" rx="8.5513" ry="7.80771" fill="#8D6250"/>
<ellipse cx="55.6797" cy="71.1925" rx="8.5513" ry="7.80771" fill="#8D6250"/>
<rect x="18.8721" y="57.064" width="29.0001" height="18.9616" rx="9.48079" fill="#A2705C"/>
<rect x="27.0513" y="57.436" width="8.92309" height="7.43591" rx="3.71796" fill="#1E1E1F"/>
<circle cx="46.9421" cy="49.9998" r="2.97436" fill="#1E1E1F"/>
<circle cx="27.6091" cy="49.9998" r="2.97436" fill="#1E1E1F"/>
<path d="M61.2847 45.319C59.1324 39.627 61.367 33.2236 66.5825 30.1372V30.1372C71.6464 27.1406 78.1244 28.1038 82.128 32.4484L87.9323 38.7473C93.7432 45.0533 92.292 55.1009 84.9422 59.4502L83.7212 60.1728C76.548 64.4176 67.2647 61.1344 64.3046 53.3059L61.2847 45.319Z" fill="#7C503E"/>
</svg>
