<svg width="87" height="57" viewBox="0 0 87 57" fill="none" xmlns="http://www.w3.org/2000/svg">
<path d="M12.6717 10.9955C16.3256 6.58937 22.6006 5.43968 27.5491 8.26969C32.3536 11.0174 34.5777 16.7623 32.8862 22.0559L30.4339 29.7306C27.9788 37.4139 19.088 40.8983 12.1147 36.9102L10.9562 36.2477C4.15032 32.3554 2.51925 23.238 7.54466 17.178L12.6717 10.9955Z" fill="#7C503E"/>
<ellipse cx="42.3165" cy="26.7538" rx="24.1309" ry="23.6063" fill="#8D6250"/>
<ellipse cx="27.8029" cy="11.541" rx="8.04364" ry="7.34419" fill="#8D6250"/>
<ellipse cx="23.956" cy="20.2836" rx="8.04364" ry="7.34419" fill="#8D6250"/>
<ellipse cx="22.2075" cy="30.0766" rx="8.04364" ry="7.34419" fill="#8D6250"/>
<ellipse cx="22.0324" cy="38.4697" rx="8.04364" ry="7.34419" fill="#8D6250"/>
<ellipse cx="38.6445" cy="7.34419" rx="8.04364" ry="7.34419" fill="#8D6250"/>
<ellipse cx="48.6115" cy="7.34419" rx="8.04364" ry="7.34419" fill="#8D6250"/>
<ellipse cx="57.7043" cy="12.9399" rx="8.04364" ry="7.34419" fill="#8D6250"/>
<ellipse cx="29.7265" cy="46.8627" rx="8.04364" ry="7.34419" fill="#8D6250"/>
<ellipse cx="38.8193" cy="48.9614" rx="8.04364" ry="7.34419" fill="#8D6250"/>
<ellipse cx="47.912" cy="48.6113" rx="8.04364" ry="7.34419" fill="#8D6250"/>
<ellipse cx="54.7318" cy="45.1147" rx="7.16933" ry="7.34419" fill="#8D6250"/>
<ellipse cx="59.278" cy="37.77" rx="7.16933" ry="7.34419" fill="#8D6250"/>
<rect x="13.9888" y="33.9233" width="27.2784" height="17.8359" rx="8.91794" fill="#A2705C"/>
<rect x="21.6829" y="34.2729" width="8.39336" height="6.99447" rx="3.49723" fill="#1E1E1F"/>
<circle cx="39.393" cy="27.2783" r="2.79779" fill="#1E1E1F"/>
<circle cx="24.2075" cy="27.2783" r="2.79779" fill="#1E1E1F"/>
<path d="M53.8838 22.8756C51.8593 17.5215 53.9612 11.4982 58.8671 8.59508C63.6303 5.77639 69.7238 6.68232 73.4897 10.7691L78.9495 16.694C84.4153 22.6256 83.0503 32.0767 76.1369 36.1678L74.9883 36.8475C68.2409 40.8403 59.5088 37.7521 56.7244 30.3883L53.8838 22.8756Z" fill="#7C503E"/>
</svg>
