<svg width="108" height="71" viewBox="0 0 108 71" fill="none" xmlns="http://www.w3.org/2000/svg">
<path d="M16.2664 15.8084C20.9513 10.2059 28.9633 8.77189 35.262 12.4084C41.3775 15.9392 44.185 23.2805 41.9993 30.0255L38.8304 39.8045C35.658 49.5943 24.2964 53.9935 15.4203 48.8688L13.9457 48.0175C5.28275 43.0159 3.2494 31.3749 9.69275 23.6696L16.2664 15.8084Z" fill="url(#paint0_linear_1335_63)"/>
<rect x="16.9014" y="7" width="66" height="64" rx="28" fill="white"/>
<mask id="mask0_1335_63" style="mask-type:alpha" maskUnits="userSpaceOnUse" x="16" y="7" width="67" height="64">
<rect x="16.9014" y="7" width="66" height="64" rx="28" fill="white"/>
</mask>
<g mask="url(#mask0_1335_63)">
<rect x="43.6685" y="10.4331" width="37.0202" height="39.5564" rx="18.5101" transform="rotate(-0.670166 43.6685 10.4331)" fill="#C28747"/>
</g>
<path d="M69.7979 29.4432C67.0478 22.7109 68.9018 15.5159 74.1935 12.3845C79.3313 9.34417 86.2938 10.9804 90.9018 16.311L97.5823 24.0393C104.27 31.7763 103.545 43.2332 96.0881 47.6459L94.8492 48.3791C87.5713 52.6858 77.4389 48.1488 73.6566 38.8896L69.7979 29.4432Z" fill="url(#paint1_linear_1335_63)"/>
<path d="M12 51.5C12 42.3873 19.3873 35 28.5 35H40.5C49.6127 35 57 42.3873 57 51.5V51.5C57 60.6127 49.6127 68 40.5 68H34.5H28.5C19.3873 68 12 60.6127 12 51.5V51.5Z" fill="white"/>
<path d="M30.5624 48.0458C29.7617 49.0474 28.2387 49.0474 27.438 48.0458L23.8031 43.4988C22.7562 42.1892 23.6886 40.25 25.3653 40.25L32.6351 40.25C34.3118 40.25 35.2442 42.1892 34.1973 43.4988L30.5624 48.0458Z" fill="#353230"/>
<circle cx="50.8994" cy="30.9839" r="3" fill="#353230"/>
<circle cx="33.9014" cy="30.9839" r="3" fill="#353230"/>
<path d="M35.5651 3.82716C35.5895 2.94125 36.669 2.52253 37.2844 3.16027L40.7992 6.80271C41.2955 7.31705 41.1076 8.17092 40.4412 8.42941L36.7872 9.84679C36.1208 10.1053 35.4063 9.60146 35.4259 8.88697L35.5651 3.82716Z" fill="white"/>
<path d="M32.5651 6.82716C32.5895 5.94125 33.669 5.52253 34.2844 6.16027L37.7992 9.80271C38.2955 10.317 38.1076 11.1709 37.4412 11.4294L33.7872 12.8468C33.1208 13.1053 32.4063 12.6015 32.4259 11.887L32.5651 6.82716Z" fill="white"/>
<defs>
<linearGradient id="paint0_linear_1335_63" x1="35.432" y1="12.5066" x2="14.6837" y2="48.4436" gradientUnits="userSpaceOnUse">
<stop stop-color="#C98C4A"/>
<stop offset="1" stop-color="#613C13"/>
</linearGradient>
<linearGradient id="paint1_linear_1335_63" x1="74.3363" y1="12.3" x2="95.4693" y2="48.0121" gradientUnits="userSpaceOnUse">
<stop stop-color="#C98C4A"/>
<stop offset="1" stop-color="#613C13"/>
</linearGradient>
</defs>
</svg>
