<svg width="100" height="100" viewBox="0 0 100 100" fill="none" xmlns="http://www.w3.org/2000/svg">
<path d="M18.6982 34.3122C22.6433 29.5944 29.3903 28.3868 34.6944 31.4491C39.8443 34.4224 42.2086 40.6045 40.3679 46.2846L37.6994 54.5195C35.0279 62.7635 25.4603 66.4681 17.9856 62.1526L16.7438 61.4357C9.44876 57.2238 7.73646 47.4209 13.1624 40.9322L18.6982 34.3122Z" fill="url(#paint0_linear_1356_79)"/>
<rect x="19.2329" y="26.8945" width="55.5789" height="53.8947" rx="26.9474" fill="white"/>
<mask id="mask0_1356_79" style="mask-type:alpha" maskUnits="userSpaceOnUse" x="19" y="26" width="56" height="55">
<rect x="19.2329" y="26.8945" width="55.5789" height="53.8947" rx="26.9474" fill="white"/>
</mask>
<g mask="url(#mask0_1356_79)">
<rect x="41.7734" y="29.7856" width="31.1749" height="33.3107" rx="15.5875" transform="rotate(-0.670166 41.7734 29.7856)" fill="#C28747"/>
</g>
<path d="M63.7771 45.7943C61.4612 40.125 63.0225 34.066 67.4787 31.4291C71.8052 28.8688 77.6684 30.2467 81.5488 34.7356L87.1745 41.2437C92.8065 47.759 92.1958 57.4069 85.9162 61.1229L84.8729 61.7403C78.7442 65.367 70.2116 61.5464 67.0265 53.7492L63.7771 45.7943Z" fill="url(#paint1_linear_1356_79)"/>
<path d="M15.1055 64.3684C15.1055 56.6945 21.3264 50.4736 29.0002 50.4736H39.1055C46.7793 50.4736 53.0002 56.6945 53.0002 64.3684V64.3684C53.0002 72.0422 46.7793 78.2631 39.1055 78.2631H34.0528H29.0002C21.3264 78.2631 15.1055 72.0422 15.1055 64.3684V64.3684Z" fill="white"/>
<path d="M30.9835 61.1513C30.1828 62.1529 28.6598 62.1529 27.8591 61.1513L25.4549 58.1438C24.4079 56.8341 25.3404 54.8949 27.0171 54.8949L31.8255 54.8949C33.5022 54.8949 34.4347 56.8341 33.3877 58.1438L30.9835 61.1513Z" fill="#353230"/>
<circle cx="47.8627" cy="47.0917" r="2.52632" fill="#353230"/>
<circle cx="33.5483" cy="47.0917" r="2.52632" fill="#353230"/>
<path d="M34.9392 24.5985C34.9636 23.7126 36.043 23.2939 36.6584 23.9317L39.1922 26.5574C39.6885 27.0718 39.5006 27.9256 38.8342 28.1841L36.2001 29.2059C35.5337 29.4644 34.8192 28.9606 34.8388 28.2461L34.9392 24.5985Z" fill="white"/>
<path d="M32.4128 27.1249C32.4372 26.239 33.5167 25.8203 34.1321 26.458L36.6658 29.0838C37.1621 29.5981 36.9742 30.452 36.3079 30.7105L33.6737 31.7323C33.0074 31.9907 32.2928 31.4869 32.3125 30.7724L32.4128 27.1249Z" fill="white"/>
<defs>
<linearGradient id="paint0_linear_1356_79" x1="34.8376" y1="31.5318" x2="17.3654" y2="61.7945" gradientUnits="userSpaceOnUse">
<stop stop-color="#C98C4A"/>
<stop offset="1" stop-color="#613C13"/>
</linearGradient>
<linearGradient id="paint1_linear_1356_79" x1="67.5989" y1="31.3579" x2="85.3951" y2="61.4313" gradientUnits="userSpaceOnUse">
<stop stop-color="#C98C4A"/>
<stop offset="1" stop-color="#613C13"/>
</linearGradient>
</defs>
</svg>
